<svg width="192" height="42" viewBox="0 0 192 42" fill="none" xmlns="http://www.w3.org/2000/svg">
<path d="M177.357 30.9709C177.357 30.3929 177.421 29.6704 177.549 28.8034C177.71 27.9365 178.015 26.5557 178.465 24.6612C178.914 22.8309 179.203 21.5144 179.332 20.7116C179.46 19.9088 179.524 19.2345 179.524 18.6886C179.524 17.8859 179.38 17.2758 179.091 16.8583C178.802 16.4409 178.368 16.2322 177.79 16.2322C177.02 16.2322 176.297 16.6336 175.623 17.4363C174.981 18.207 174.451 19.2827 174.033 20.6634L170.758 36.1246H163.822L168.928 12.0418H175.864L175.334 14.5464C176.137 13.6473 177.004 12.973 177.935 12.5234C178.866 12.0739 179.877 11.8491 180.969 11.8491C182.671 11.8491 183.988 12.3147 184.919 13.2459C185.85 14.1771 186.316 15.5258 186.316 17.2918C186.316 18.0304 186.219 18.9134 186.027 19.941C185.866 20.9364 185.529 22.4777 185.015 24.5649C184.598 26.2025 184.325 27.3585 184.196 28.0328C184.068 28.7071 184.004 29.269 184.004 29.7186C184.004 30.3929 184.164 30.9067 184.485 31.2599C184.806 31.581 185.288 31.7415 185.93 31.7415C186.733 31.7415 187.423 31.4686 188.001 30.9227C188.579 30.3768 189.238 29.2369 189.976 27.503H191.999C190.972 30.4892 189.719 32.7209 188.242 34.198C186.797 35.6751 185.063 36.4136 183.04 36.4136C181.242 36.4136 179.845 35.932 178.85 34.9686C177.855 33.9732 177.357 32.6406 177.357 30.9709Z" fill="#2A2E32"/>
<path d="M143.578 28.7072C143.578 26.8769 143.867 24.9342 144.445 22.8792C145.055 20.8241 145.874 18.9938 146.902 17.3883C148.09 15.4938 149.519 14.0648 151.188 13.1015C152.858 12.1061 154.72 11.6084 156.776 11.6084C158.831 11.6084 160.372 12.2506 161.399 13.535C162.427 14.8194 162.941 16.7461 162.941 19.3149C163.005 19.347 163.069 19.3791 163.133 19.4112C163.23 19.4112 163.342 19.4112 163.471 19.4112C164.466 19.4112 165.654 19.1383 167.035 18.5924C168.416 18.0465 169.7 17.3562 170.888 16.5213L171.322 17.8218C170.422 18.7851 169.218 19.62 167.709 20.3264C166.232 21.0328 164.594 21.5305 162.796 21.8195C162.411 26.1544 161.159 29.6545 159.039 32.3196C156.92 34.9848 154.335 36.3174 151.285 36.3174C148.78 36.3174 146.869 35.6752 145.553 34.3908C144.236 33.1063 143.578 31.2118 143.578 28.7072ZM157.161 14.5465C155.62 14.5465 154.159 16.1039 152.778 19.2186C151.429 22.3333 150.755 25.2874 150.755 28.0811C150.755 29.5902 150.915 30.6178 151.236 31.1637C151.59 31.7095 152.248 31.9825 153.211 31.9825C154.399 31.9825 155.523 31.0192 156.583 29.0925C157.675 27.1659 158.413 24.7897 158.798 21.964C158.349 21.8677 158.012 21.659 157.787 21.3379C157.594 20.9846 157.498 20.519 157.498 19.9411C157.498 19.331 157.626 18.8011 157.883 18.3516C158.14 17.902 158.509 17.5649 158.991 17.3401C158.927 16.3126 158.75 15.5901 158.461 15.1727C158.204 14.7552 157.771 14.5465 157.161 14.5465Z" fill="#2A2E32"/>
<path d="M143.306 5.63548C143.306 6.69512 142.92 7.59422 142.15 8.33276C141.411 9.0713 140.512 9.44057 139.452 9.44057C138.393 9.44057 137.494 9.0713 136.755 8.33276C136.017 7.59422 135.647 6.69512 135.647 5.63548C135.647 4.57584 136.017 3.67674 136.755 2.9382C137.494 2.16755 138.393 1.78223 139.452 1.78223C140.512 1.78223 141.411 2.16755 142.15 2.9382C142.92 3.67674 143.306 4.57584 143.306 5.63548ZM131.023 30.6335C131.023 30.216 131.056 29.7504 131.12 29.2367C131.184 28.6908 131.28 28.1128 131.409 27.5027L134.684 12.0415H141.62L138.152 28.4178C138.088 28.7068 138.04 28.9798 138.007 29.2367C137.975 29.4614 137.959 29.7023 137.959 29.9591C137.959 30.6013 138.104 31.0669 138.393 31.3559C138.714 31.6128 139.228 31.7413 139.934 31.7413C140.833 31.7413 141.684 31.3559 142.487 30.5853C143.29 29.7825 143.884 28.755 144.269 27.5027H146.292C145.264 30.4247 143.884 32.6404 142.15 34.1496C140.416 35.6587 138.425 36.4133 136.177 36.4133C134.572 36.4133 133.303 35.9156 132.372 34.9202C131.473 33.8927 131.023 32.4638 131.023 30.6335Z" fill="#2A2E32"/>
<path d="M120.255 12.0413H121.844L123.289 5.39447L130.418 4.43115L128.78 12.0413H131.67L131.285 13.968H128.395L125.312 28.4177C125.248 28.7066 125.2 28.9796 125.168 29.2365C125.136 29.4612 125.119 29.7021 125.119 29.959C125.119 30.6012 125.264 31.0668 125.553 31.3558C125.874 31.6126 126.388 31.7411 127.094 31.7411C127.993 31.7411 128.844 31.3558 129.647 30.5851C130.45 29.7823 131.044 28.7548 131.429 27.5025H133.452C132.425 30.4246 131.044 32.6402 129.31 34.1494C127.576 35.6586 125.585 36.4132 123.337 36.4132C121.732 36.4132 120.463 35.9154 119.532 34.92C118.633 33.8925 118.184 32.4636 118.184 30.6333C118.184 30.2158 118.216 29.7502 118.28 29.2365C118.344 28.6906 118.44 28.1126 118.569 27.5025L121.459 13.968H119.869L120.255 12.0413Z" fill="#2A2E32"/>
<path d="M117.76 16.0396C117.76 17.1314 117.519 17.9984 117.037 18.6406C116.588 19.2507 115.978 19.5557 115.207 19.5557C114.95 19.5557 114.677 19.5076 114.388 19.4112C114.099 19.3149 113.81 19.1704 113.521 18.9777C113.714 18.464 113.859 17.9663 113.955 17.4846C114.051 17.003 114.099 16.5534 114.099 16.136C114.099 15.4938 113.987 15.0121 113.762 14.691C113.537 14.3378 113.2 14.1612 112.751 14.1612C111.338 14.1612 109.957 15.7988 108.609 19.0741C107.26 22.3172 106.586 25.3998 106.586 28.3219C106.586 29.799 106.826 30.8426 107.308 31.4527C107.822 32.0627 108.737 32.3678 110.053 32.3678C111.563 32.3678 112.943 32.0306 114.196 31.3563C115.48 30.6499 116.941 29.3655 118.579 27.5031H120.216C118.354 30.5214 116.331 32.7692 114.148 34.2463C111.964 35.6912 109.572 36.4137 106.971 36.4137C104.498 36.4137 102.62 35.7715 101.335 34.4871C100.083 33.2027 99.457 31.2921 99.457 28.7554C99.457 26.9251 99.73 24.9824 100.276 22.9273C100.854 20.8723 101.641 19.042 102.636 17.4364C103.824 15.5098 105.237 14.0648 106.875 13.1015C108.544 12.1061 110.391 11.6084 112.414 11.6084C114.18 11.6084 115.512 11.9937 116.411 12.7644C117.31 13.5029 117.76 14.5947 117.76 16.0396Z" fill="#2A2E32"/>
<path d="M90.3835 14.2572V14.5944L90.9133 12.0416H97.8492L94.3813 28.4179C94.317 28.7069 94.2689 28.9799 94.2368 29.2367C94.2047 29.4615 94.1886 29.7024 94.1886 29.9592C94.1886 30.6657 94.3491 31.1955 94.6703 31.5487C94.9914 31.8698 95.4891 32.0304 96.1634 32.0304C96.9983 32.0304 97.7529 31.645 98.4272 30.8744C99.1015 30.0716 99.6474 28.9478 100.065 27.5028H102.088C101.06 30.4569 99.7276 32.6886 98.09 34.1978C96.4524 35.6749 94.5579 36.4134 92.4065 36.4134C91.0257 36.4134 89.9179 36.0281 89.083 35.2575C88.2803 34.4868 87.8147 33.3951 87.6862 31.9822C86.6908 33.4593 85.583 34.5671 84.3628 35.3056C83.1747 36.0442 81.8903 36.4134 80.5095 36.4134C78.5187 36.4134 76.9453 35.7391 75.7893 34.3905C74.6654 33.0418 74.1035 31.1313 74.1035 28.6588C74.1035 26.8606 74.3765 24.9821 74.9223 23.0234C75.4682 21.0646 76.2228 19.2825 77.1861 17.677C78.3742 15.7825 79.755 14.3375 81.3284 13.3421C82.9018 12.3145 84.6197 11.8008 86.4821 11.8008C87.7344 11.8008 88.6977 12.0256 89.372 12.4751C90.0463 12.8925 90.3835 13.4866 90.3835 14.2572ZM89.95 16.6173C89.95 16.1357 89.7734 15.7183 89.4202 15.365C89.067 14.9797 88.5853 14.7871 87.9752 14.7871C86.2092 14.7871 84.6357 16.2641 83.255 19.2183C81.9064 22.1725 81.232 25.0945 81.232 27.9844C81.232 29.2368 81.4086 30.184 81.7619 30.8262C82.1151 31.4363 82.7412 31.7414 83.6403 31.7414C84.4752 31.7414 85.2779 31.34 86.0486 30.5372C86.8514 29.7345 87.3812 28.723 87.6381 27.5028L89.95 16.6173Z" fill="#2A2E32"/>
<path d="M62.5257 36.1248H55.5898L60.6954 12.042H67.6313L67.0051 15.0283C68.418 13.8402 69.5258 13.0535 70.3285 12.6681C71.1634 12.2507 71.9983 12.042 72.8332 12.042C73.8286 12.042 74.6313 12.3952 75.2414 13.1016C75.8515 13.776 76.1566 14.6269 76.1566 15.6544C76.1566 16.6498 75.8355 17.4847 75.1933 18.159C74.5511 18.8333 73.7162 19.1705 72.6887 19.1705C72.1428 19.1705 71.7093 19.0421 71.3882 18.7852C71.0992 18.5283 70.8905 17.9985 70.762 17.1957C70.6657 16.6819 70.5533 16.3608 70.4249 16.2324C70.2964 16.0719 70.1198 15.9916 69.895 15.9916C69.3492 15.9916 68.8354 16.104 68.3537 16.3287C67.8721 16.5535 67.2138 17.0512 66.379 17.8219L62.5257 36.1248Z" fill="#2A2E32"/>
<path d="M46.2664 12.0413H47.8559L49.3009 5.39447L56.4294 4.43115L54.7918 12.0413H57.6817L57.2964 13.968H54.4064L51.3238 28.4177C51.2596 28.7066 51.2114 28.9796 51.1793 29.2365C51.1472 29.4612 51.1312 29.7021 51.1312 29.959C51.1312 30.6012 51.2757 31.0668 51.5647 31.3558C51.8858 31.6126 52.3995 31.7411 53.106 31.7411C54.0051 31.7411 54.856 31.3558 55.6587 30.5851C56.4615 29.7823 57.0555 28.7548 57.4409 27.5025H59.4638C58.4363 30.4246 57.0555 32.6402 55.3216 34.1494C53.5876 35.6586 51.5968 36.4132 49.349 36.4132C47.7435 36.4132 46.4752 35.9154 45.544 34.92C44.6449 33.8925 44.1953 32.4636 44.1953 30.6333C44.1953 30.2158 44.2274 29.7502 44.2916 29.2365C44.3559 28.6906 44.4522 28.1126 44.5806 27.5025L47.4706 13.968H45.8811L46.2664 12.0413Z" fill="#2A2E32"/>
<path d="M33.4246 12.0413H35.0141L36.4591 5.39447L43.5876 4.43115L41.95 12.0413H44.8399L44.4546 13.968H41.5646L38.482 28.4177C38.4178 28.7066 38.3696 28.9796 38.3375 29.2365C38.3054 29.4612 38.2894 29.7021 38.2894 29.959C38.2894 30.6012 38.4339 31.0668 38.7229 31.3558C39.044 31.6126 39.5577 31.7411 40.2642 31.7411C41.1633 31.7411 42.0142 31.3558 42.8169 30.5851C43.6197 29.7823 44.2137 28.7548 44.5991 27.5025H46.622C45.5945 30.4246 44.2137 32.6402 42.4798 34.1494C40.7458 35.6586 38.755 36.4132 36.5072 36.4132C34.9017 36.4132 33.6334 35.9154 32.7022 34.92C31.8031 33.8925 31.3535 32.4636 31.3535 30.6333C31.3535 30.2158 31.3856 29.7502 31.4498 29.2365C31.5141 28.6906 31.6104 28.1126 31.7388 27.5025L34.6288 13.968H33.0393L33.4246 12.0413Z" fill="#2A2E32"/>
<path d="M25.3351 3.41976C24.0186 4.12619 22.6218 5.45878 21.1447 7.41752C19.6676 9.34414 18.1745 11.8166 16.6653 14.835C17.8213 15.0598 18.8809 15.3167 19.8443 15.6057C20.8397 15.8947 21.7388 16.1997 22.5415 16.5208L25.3351 3.41976ZM29.0921 0C29.7664 0 30.4407 0.064222 31.115 0.192664C31.7893 0.288996 32.3834 0.449547 32.8971 0.674319L25.3351 36.1243H18.3993L22.108 18.6401C20.9842 18.1263 19.9245 17.741 18.9291 17.4841C17.9337 17.1951 16.8419 17.0025 15.6538 16.9061C13.8235 20.8878 12.3144 24.9338 11.1263 29.0439C9.97029 33.154 9.39231 36.4454 9.39231 38.9179C9.39231 39.4958 9.44047 39.9936 9.5368 40.411C9.66524 40.8605 9.84185 41.2619 10.0666 41.6151C7.62623 41.6151 5.94043 41.1977 5.00923 40.3628C4.07803 39.528 3.61243 38.2435 3.61243 36.5096C3.61243 34.3582 4.25463 31.4843 5.53905 27.8879C6.85558 24.2916 8.57349 20.631 10.6928 16.9061C9.05515 17.0025 7.77073 17.2594 6.83952 17.6768C5.94043 18.0942 5.34639 18.6722 5.0574 19.4108C5.18584 19.4108 5.31428 19.5874 5.44272 19.9406C5.60327 20.2617 5.68355 20.5828 5.68355 20.9039C5.68355 21.4498 5.42666 21.8993 4.9129 22.2525C4.39913 22.6058 3.75692 22.7824 2.98627 22.7824C2.08718 22.7824 1.36469 22.5415 0.818816 22.0599C0.272939 21.5461 0 20.8557 0 19.9888C0 18.319 0.931203 16.9222 2.79361 15.7983C4.68812 14.6424 7.03219 14.0644 9.8258 14.0644C10.1469 14.0644 10.5162 14.0804 10.9336 14.1125C11.351 14.1125 11.8166 14.1447 12.3304 14.2089C15.1561 9.74552 18.03 6.26154 20.9521 3.75692C23.8741 1.25231 26.5874 0 29.0921 0Z" fill="#2A2E32"/>
</svg>
