<svg xmlns="http://www.w3.org/2000/svg" fill="none" viewBox="0 0 20 20" stroke-width="1.5" stroke="currentColor" aria-hidden="true" data-slot="icon"><path fill="#6F7A86" fill-rule="evenodd" d="M12.5 1.042H9.12c-1.532 0-2.745 0-3.694.127-.977.132-1.768.408-2.392 1.032s-.9 1.415-1.031 2.391c-.128.95-.128 2.163-.128 3.695v5.046a3.126 3.126 0 0 0 2.638 3.088c.115.636.335 1.18.777 1.622.502.502 1.133.717 1.883.819.723.096 1.642.096 2.781.096h2.592c1.139 0 2.058 0 2.78-.096.75-.102 1.382-.317 1.884-.819s.717-1.133.818-1.883c.097-.723.097-1.642.097-2.781V9.121c0-1.14 0-2.059-.097-2.781-.101-.75-.316-1.382-.818-1.883-.443-.442-.986-.663-1.623-.777A3.126 3.126 0 0 0 12.5 1.042m1.775 2.517A1.875 1.875 0 0 0 12.5 2.292H9.167c-1.59 0-2.718.001-3.575.116-.838.113-1.321.324-1.674.677-.352.352-.564.836-.676 1.674-.115.857-.117 1.985-.117 3.574v5a1.875 1.875 0 0 0 1.268 1.775c-.018-.508-.018-1.083-.018-1.729V9.121c0-1.14 0-2.059.098-2.781.1-.75.316-1.382.817-1.883.502-.502 1.133-.717 1.883-.818.723-.097 1.642-.097 2.781-.097h2.592c.646 0 1.22 0 1.729.017M6.173 5.341c.231-.23.555-.38 1.167-.463.628-.084 1.463-.086 2.66-.086h2.5c1.195 0 2.03.002 2.66.086.61.083.934.234 1.165.463.23.231.38.555.463 1.167.084.628.086 1.463.086 2.66v4.166c0 1.196-.002 2.03-.086 2.66-.082.612-.233.935-.463 1.166s-.554.38-1.167.463c-.629.084-1.463.086-2.659.086H10c-1.196 0-2.03-.002-2.66-.086-.612-.082-.935-.233-1.166-.463-.23-.231-.38-.554-.463-1.167-.084-.629-.086-1.463-.086-2.659V9.167c0-1.195.002-2.03.086-2.66.083-.611.233-.935.463-1.165" clip-rule="evenodd"/></svg>