<svg xmlns="http://www.w3.org/2000/svg" aria-hidden="true" data-slot="icon" viewBox="0 0 48 48" width="1em" height="1em" fill="currentColor"><path d="M29.89 2.5c-2.734 0-4.94 0-6.674.234-1.8.24-3.316.76-4.52 1.962-1.048 1.05-1.58 2.34-1.858 3.856-.27 1.474-.322 3.276-.334 5.44a1.5 1.5 0 0 0 3 .016c.012-2.186.068-3.736.284-4.914.21-1.132.544-1.79 1.03-2.276.554-.554 1.332-.914 2.8-1.112C25.128 5.504 27.13 5.5 30 5.5h2c2.872 0 4.874.004 6.384.206 1.468.198 2.244.56 2.8 1.112.552.554.912 1.33 1.11 2.8.204 1.508.206 3.512.206 6.382v16c0 2.87-.002 4.872-.206 6.384-.198 1.468-.558 2.244-1.112 2.798s-1.33.914-2.798 1.112c-1.51.202-3.512.206-6.384.206h-2c-2.87 0-4.872-.004-6.384-.206-1.466-.198-2.244-.56-2.798-1.112-.486-.488-.82-1.144-1.03-2.276-.216-1.178-.272-2.728-.284-4.914a1.5 1.5 0 1 0-3 .016c.012 2.164.064 3.966.334 5.44.28 1.516.81 2.806 1.86 3.856 1.202 1.204 2.72 1.72 4.52 1.964 1.732.232 3.938.232 6.672.232h2.22c2.736 0 4.94 0 6.674-.232 1.8-.244 3.316-.76 4.52-1.964s1.72-2.72 1.964-4.52c.232-1.734.232-3.94.232-6.674V15.89c0-2.734 0-4.94-.232-6.674-.242-1.8-.76-3.316-1.964-4.52s-2.72-1.72-4.52-1.962C37.05 2.5 34.844 2.5 32.11 2.5z"/><path d="M30 22.5a1.5 1.5 0 1 1 0 3H8.054l3.922 3.36a1.5 1.5 0 1 1-1.952 2.28l-7-6a1.5 1.5 0 0 1 0-2.28l7-6a1.5 1.5 0 1 1 1.952 2.28l-3.92 3.36z"/></svg>