<svg xmlns="http://www.w3.org/2000/svg" aria-hidden="true" data-slot="icon" viewBox="0 0 48 48" width="1em" height="1em" fill="currentColor"><path fill-rule="evenodd" d="M23.886 2.5c-4.618 0-8.236 0-11.06.38-2.888.388-5.168 1.2-6.958 2.988-1.79 1.79-2.6 4.07-2.988 6.96-.38 2.822-.38 6.44-.38 11.058v.228c0 4.618 0 8.236.38 11.06.388 2.888 1.2 5.168 2.988 6.958 1.79 1.79 4.07 2.6 6.96 2.988 2.822.38 6.44.38 11.058.38h.228c4.618 0 8.236 0 11.06-.38 2.888-.388 5.168-1.2 6.958-2.988 1.79-1.79 2.6-4.07 2.988-6.96.38-2.822.38-6.44.38-11.058v-.228c0-4.618 0-8.236-.38-11.06-.388-2.888-1.2-5.168-2.988-6.958-1.79-1.79-4.07-2.6-6.96-2.988-2.822-.38-6.44-.38-11.058-.38zM12.5 5.964c-2.13.366-3.484 1-4.51 2.026-1.14 1.14-1.794 2.68-2.138 5.238C5.504 15.828 5.5 19.244 5.5 24s.004 8.172.352 10.772c.344 2.558 1 4.1 2.138 5.24 1.14 1.138 2.68 1.792 5.238 2.136 2.6.348 6.016.352 10.772.352s8.172-.004 10.772-.352c2.558-.344 4.1-1 5.24-2.138 1.138-1.14 1.792-2.68 2.136-5.238.348-2.6.352-6.016.352-10.772s-.004-8.172-.352-10.772c-.344-2.558-1-4.1-2.138-5.24-1.026-1.026-2.38-1.658-4.51-2.024V17.66c0 .936 0 1.702-.034 2.306-.036.596-.108 1.212-.354 1.762a4.5 4.5 0 0 1-5.174 2.546c-.586-.14-1.12-.46-1.612-.796-.5-.34-1.106-.808-1.848-1.38l-.036-.028c-.94-.72-1.204-.912-1.446-1.016a2.5 2.5 0 0 0-1.992 0c-.242.104-.506.294-1.446 1.016l-.036.03c-.74.57-1.35 1.038-1.848 1.38-.494.334-1.026.652-1.612.794a4.5 4.5 0 0 1-5.174-2.546c-.246-.55-.32-1.166-.354-1.762-.034-.604-.034-1.37-.034-2.306zm20-.324c-2.252-.14-5.016-.14-8.5-.14s-6.248 0-8.5.14v11.976c0 .992 0 1.672.03 2.18.03.524.086.686.1.716a1.5 1.5 0 0 0 1.724.85c.032-.008.194-.064.628-.36.42-.286.96-.7 1.746-1.306l.134-.104c.74-.57 1.318-1.014 1.946-1.288a5.5 5.5 0 0 1 4.384 0c.628.274 1.206.718 1.946 1.288l.134.104c.786.606 1.326 1.02 1.746 1.306.434.296.596.352.628.36a1.5 1.5 0 0 0 1.724-.85c.014-.03.07-.192.1-.716.03-.508.03-1.188.03-2.18z" clip-rule="evenodd"/></svg>