<svg xmlns="http://www.w3.org/2000/svg" aria-hidden="true" data-slot="icon" viewBox="0 0 48 48" width="1em" height="1em" fill="currentColor"><path fill-rule="evenodd" d="M15.196 8.974c.534-2.62 2.866-4.474 5.536-4.474h6.536c2.67 0 5 1.854 5.536 4.474a1.31 1.31 0 0 0 1.24 1.048h.066c2.806.124 4.962.468 6.762 1.65 1.134.744 2.11 1.7 2.87 2.818.946 1.388 1.362 2.984 1.562 4.912.196 1.886.196 4.248.196 7.24v.17c0 2.992 0 5.356-.196 7.24-.2 1.928-.616 3.524-1.562 4.914a10.3 10.3 0 0 1-2.87 2.818c-1.406.922-3.02 1.33-4.976 1.524-1.916.192-4.318.192-7.37.192h-9.052c-3.052 0-5.454 0-7.37-.192-1.956-.194-3.57-.6-4.976-1.524a10.3 10.3 0 0 1-2.87-2.82c-.946-1.388-1.362-2.984-1.562-4.912-.196-1.884-.196-4.248-.196-7.24v-.17c0-2.992 0-5.354.196-7.24.2-1.928.616-3.524 1.562-4.912a10.3 10.3 0 0 1 2.87-2.82c1.8-1.18 3.956-1.524 6.762-1.646l.034-.002h.032a1.31 1.31 0 0 0 1.24-1.048M20.732 7.5c-1.28 0-2.354.886-2.596 2.072-.39 1.92-2.094 3.432-4.144 3.45-2.696.12-4.14.45-5.22 1.158a7.3 7.3 0 0 0-2.034 1.998c-.552.81-.884 1.848-1.06 3.534-.176 1.712-.178 3.92-.178 7.016s0 5.302.18 7.014c.174 1.686.506 2.724 1.06 3.536a7.3 7.3 0 0 0 2.034 1.998c.834.546 1.902.876 3.628 1.048 1.748.174 4 .176 7.154.176h8.888c3.152 0 5.404 0 7.154-.176 1.726-.172 2.794-.5 3.628-1.048a7.3 7.3 0 0 0 2.036-2c.552-.81.884-1.848 1.06-3.534.176-1.712.178-3.92.178-7.014 0-3.096 0-5.304-.18-7.016-.174-1.686-.506-2.724-1.06-3.534a7.3 7.3 0 0 0-2.034-2c-1.076-.706-2.52-1.036-5.22-1.156-2.048-.02-3.752-1.528-4.142-3.45A2.63 2.63 0 0 0 27.268 7.5zM24 21.5a4.5 4.5 0 1 0 0 9 4.5 4.5 0 0 0 0-9M16.5 26a7.5 7.5 0 1 1 15 0 7.5 7.5 0 0 1-15 0m18-6a1.5 1.5 0 0 1 1.5-1.5h2a1.5 1.5 0 1 1 0 3h-2a1.5 1.5 0 0 1-1.5-1.5" clip-rule="evenodd"/></svg>