<svg xmlns="http://www.w3.org/2000/svg" fill="none" stroke-width="1.5" aria-hidden="true" data-slot="icon" viewBox="0 0 24 24" stroke="currentColor"><path fill="#41474E" fill-rule="evenodd" d="M10.944 1.25h2.112c1.838 0 3.294 0 4.433.153 1.172.158 2.121.49 2.87 1.238.748.749 1.08 1.698 1.238 2.87.153 1.14.153 2.595.153 4.433v4.112c0 1.838 0 3.294-.153 4.433-.158 1.172-.49 2.121-1.238 2.87-.749.748-1.698 1.08-2.87 1.238-1.14.153-2.595.153-4.433.153h-2.112c-1.838 0-3.294 0-4.433-.153-1.172-.158-2.121-.49-2.87-1.238-.748-.749-1.08-1.698-1.238-2.87-.153-1.14-.153-2.595-.153-4.433V9.944c0-1.838 0-3.294.153-4.433.158-1.172.49-2.121 1.238-2.87.749-.748 1.698-1.08 2.87-1.238 1.14-.153 2.595-.153 4.433-.153M6.71 2.89c-1.006.135-1.586.389-2.01.812-.422.423-.676 1.003-.811 2.009-.138 1.028-.14 2.382-.14 4.289v4c0 1.907.002 3.262.14 4.29.135 1.005.389 1.585.812 2.008s1.003.677 2.009.812c1.028.138 2.382.14 4.289.14h2c1.907 0 3.262-.002 4.29-.14 1.005-.135 1.585-.389 2.008-.812s.677-1.003.812-2.009c.138-1.027.14-2.382.14-4.289v-4c0-1.907-.002-3.261-.14-4.29-.135-1.005-.389-1.585-.812-2.008s-1.003-.677-2.009-.812c-1.027-.138-2.382-.14-4.289-.14h-2c-1.907 0-3.26.002-4.289.14M7.25 8A.75.75 0 0 1 8 7.25h8a.75.75 0 1 1 0 1.5H8A.75.75 0 0 1 7.25 8m0 4a.75.75 0 0 1 .75-.75h8a.75.75 0 1 1 0 1.5H8a.75.75 0 0 1-.75-.75m0 4a.75.75 0 0 1 .75-.75h5a.75.75 0 1 1 0 1.5H8a.75.75 0 0 1-.75-.75" clip-rule="evenodd"/></svg>