<svg xmlns="http://www.w3.org/2000/svg" aria-hidden="true" data-slot="icon" viewBox="0 0 48 48" width="1em" height="1em" fill="currentColor"><path fill-rule="evenodd" d="M21.892 2.5h4.216c2.266 0 4.116 0 5.58.196 1.526.206 2.85.65 3.908 1.708s1.502 2.38 1.708 3.91c.1.752.15 1.606.174 2.566 2.116.34 3.85 1.014 5.24 2.402 1.496 1.498 2.16 3.396 2.476 5.74.306 2.28.306 5.19.306 8.866v.226c0 3.674 0 6.586-.306 8.864-.316 2.346-.98 4.244-2.476 5.74-1.498 1.496-3.396 2.16-5.74 2.476-2.28.306-5.19.306-8.866.306h-8.224c-3.676 0-6.588 0-8.866-.306-2.344-.316-4.242-.98-5.74-2.476-1.496-1.496-2.16-3.394-2.476-5.74C2.5 34.7 2.5 31.788 2.5 28.114v-.226c0-3.676 0-6.588.306-8.866.316-2.344.98-4.242 2.476-5.74 1.39-1.388 3.124-2.06 5.24-2.4.024-.962.074-1.816.174-2.568.206-1.528.65-2.852 1.708-3.91s2.38-1.502 3.91-1.708c1.46-.196 3.31-.196 5.578-.196M10.5 13.932c-1.462.294-2.388.764-3.096 1.472-.846.846-1.354 2.006-1.624 4.018-.276 2.056-.28 4.764-.28 8.58 0 3.812.004 6.52.28 8.576.27 2.012.778 3.172 1.624 4.02.846.844 2.006 1.352 4.018 1.622 2.056.278 4.764.28 8.578.28h8c3.814 0 6.524-.002 8.58-.28 2.01-.27 3.17-.778 4.016-1.624s1.354-2.006 1.624-4.018c.276-2.054.28-4.764.28-8.578s-.004-6.522-.28-8.578c-.27-2.012-.778-3.172-1.624-4.018-.708-.708-1.634-1.18-3.096-1.472v2.594c0 1.572.004 2.818-.52 3.934-.52 1.114-1.48 1.91-2.688 2.916l-.21.176-1.514 1.26c-1.774 1.48-3.21 2.676-4.48 3.492-1.32.85-2.606 1.386-4.088 1.386s-2.768-.538-4.09-1.386c-1.268-.816-2.704-2.014-4.478-3.49l-1.514-1.262q-.105-.091-.21-.176c-1.208-1.006-2.166-1.8-2.688-2.916-.524-1.116-.52-2.36-.52-3.934zm6.214-8.262c-1.196.16-1.78.448-2.188.856-.408.406-.696.992-.856 2.188-.166 1.238-.17 2.886-.17 5.286v2.254c0 1.98.034 2.5.236 2.932.202.434.58.792 2.102 2.06l1.44 1.2c1.866 1.554 3.16 2.63 4.256 3.334 1.058.68 1.776.91 2.466.91s1.408-.228 2.466-.91c1.094-.704 2.39-1.78 4.256-3.334l1.44-1.2c1.522-1.268 1.9-1.626 2.102-2.06.202-.432.236-.95.236-2.932V14c0-2.4-.004-4.048-.17-5.286-.16-1.196-.448-1.78-.856-2.188-.406-.408-.992-.696-2.188-.856C30.048 5.504 28.4 5.5 26 5.5h-4c-2.4 0-4.048.004-5.286.17M18.5 12a1.5 1.5 0 0 1 1.5-1.5h8a1.5 1.5 0 1 1 0 3h-8a1.5 1.5 0 0 1-1.5-1.5m2 6a1.5 1.5 0 0 1 1.5-1.5h4a1.5 1.5 0 1 1 0 3h-4a1.5 1.5 0 0 1-1.5-1.5" clip-rule="evenodd"/></svg>