<svg xmlns="http://www.w3.org/2000/svg" aria-hidden="true" data-slot="icon" viewBox="0 0 48 48" width="1em" height="1em" fill="currentColor"><path fill-rule="evenodd" d="M24.96 5.52c1.504-.902 3.456-.946 5.124.26C35.404 9.628 41.5 16.49 41.5 26.222c0 7.614-3.27 12.508-7.436 15.448-2.558 1.806-5.418 2.852-7.998 3.38a8.3 8.3 0 0 1-2.6.45q-.327 0-.654-.026-.472.026-.946.026c-2.92 0-7.24-.968-10.858-3.888C7.326 38.64 4.5 33.754 4.5 26.222c0-6.154 3.25-10.292 6.31-12.626a3.625 3.625 0 0 1 4.008-.328c1.168.638 1.986 1.868 2.134 3.312l.172 1.674c.066.644.396 1.18.74 1.44a.74.74 0 0 0 .38.166c.072.006.188-.004.358-.114 1.306-.85 2.298-2.376 2.964-4.172.66-1.78.934-3.64.934-4.908v-.646c0-1.946.988-3.614 2.46-4.5m.302 36.634q-1.194.233-2.408.314c-.968-.1-2.186-.428-3.206-1.128-1.17-.8-2.148-2.128-2.148-4.452 0-2.804 1.736-4.934 3.58-6.298q.009.037.008.076v.022c0 .456 0 1.146.086 1.862.086.714.268 1.59.72 2.36.316.538.8.992 1.458 1.186.646.19 1.26.07 1.74-.156.914-.43 1.566-1.33 1.84-2.28.824.672 1.568 1.72 1.568 3.23 0 2.406-.894 3.74-1.876 4.508-.428.336-.9.582-1.36.756m5.774-2.11q.67-.383 1.3-.824c3.39-2.394 6.164-6.388 6.164-12.998 0-8.374-5.244-14.446-10.174-18.012-.65-.468-1.3-.43-1.82-.118-.552.332-1.006 1.014-1.006 1.928v.646c0 1.618-.334 3.832-1.12 5.952-.782 2.104-2.08 4.302-4.144 5.644-1.468.954-3.052.68-4.182-.176-1.068-.806-1.772-2.128-1.914-3.526l-.172-1.676c-.052-.504-.324-.84-.588-.982-.224-.122-.468-.136-.75.08-2.534 1.934-5.13 5.268-5.13 10.24 0 6.69 2.464 10.692 5.392 13.056.794.64 1.634 1.168 2.482 1.6-.546-1.1-.874-2.42-.874-3.988 0-4.208 2.64-7.146 4.896-8.786a2.86 2.86 0 0 1 3.2-.152c.908.548 1.492 1.566 1.492 2.714 0 .47 0 1 .064 1.528q.015.129.036.248a3.1 3.1 0 0 1 1.606-1.612c.836-.36 1.9-.354 2.788.314 1.4 1.052 2.918 2.94 2.918 5.746 0 1.186-.168 2.236-.464 3.156" clip-rule="evenodd"/></svg>