<svg xmlns="http://www.w3.org/2000/svg" fill="none" stroke-width="1.5" aria-hidden="true" data-slot="icon" viewBox="0 0 20 20" stroke="currentColor"><path fill="#41474E" d="M9.375 15a.625.625 0 1 0 1.25 0v-2.5a.624.624 0 1 0-1.25 0z"/><path fill="#41474E" fill-rule="evenodd" d="M10 1.042c-.59 0-1.126.169-1.708.451-.562.274-1.212.677-2.023 1.18l-1.722 1.07c-.767.476-1.383.858-1.856 1.22-.49.375-.867.759-1.14 1.256-.272.496-.393 1.024-.452 1.648-.057.605-.057 1.345-.057 2.272v1.344c0 1.587 0 2.84.127 3.819.13 1.004.405 1.815 1.025 2.456.623.644 1.415.932 2.396 1.068.95.132 2.165.132 3.695.132h3.43c1.53 0 2.745 0 3.695-.132.981-.136 1.774-.424 2.397-1.069.62-.64.894-1.451 1.025-2.455.127-.98.127-2.232.127-3.819V10.14c0-.927 0-1.667-.057-2.272-.058-.625-.18-1.152-.453-1.648-.272-.497-.65-.88-1.14-1.256-.473-.363-1.088-.744-1.855-1.22l-1.723-1.07c-.81-.503-1.46-.906-2.023-1.18-.581-.283-1.117-.451-1.708-.451m-3.1 2.71c.846-.525 1.442-.893 1.94-1.136.484-.235.827-.325 1.16-.325.334 0 .677.09 1.161.325.498.242 1.094.611 1.94 1.136l1.666 1.034c.8.498 1.363.847 1.783 1.169.408.312.642.57.803.863.16.294.255.638.304 1.165.05.54.052 1.221.052 2.186v1.268c0 1.641-.002 2.813-.117 3.702-.113.873-.327 1.38-.683 1.75-.354.365-.836.582-1.67.698-.855.119-1.983.12-3.572.12H8.334c-1.59 0-2.717-.001-3.572-.12-.834-.116-1.316-.333-1.67-.7-.356-.368-.57-.875-.683-1.748-.116-.89-.117-2.06-.117-3.703V10.17c0-.965 0-1.646.052-2.186.049-.527.143-.87.304-1.165.16-.293.395-.55.803-.863.42-.322.982-.671 1.783-1.169z" clip-rule="evenodd"/></svg>