<svg xmlns="http://www.w3.org/2000/svg" fill="none" stroke-width="1.5" aria-hidden="true" data-slot="icon" viewBox="0 0 20 20" stroke="currentColor"><path fill="#41474E" fill-rule="evenodd" d="M10 1.042a3.958 3.958 0 1 0 0 7.916 3.958 3.958 0 0 0 0-7.916M7.29 5a2.708 2.708 0 1 1 5.417 0A2.708 2.708 0 0 1 7.29 5M10 10.208c-1.928 0-3.704.439-5.02 1.179-1.297.73-2.272 1.835-2.272 3.196v.085c0 .969-.002 2.184 1.064 3.052.524.427 1.259.73 2.25.93.994.203 2.29.308 3.978.308s2.983-.105 3.978-.307c.992-.2 1.725-.504 2.25-.931 1.066-.868 1.064-2.083 1.063-3.052v-.085c0-1.361-.975-2.466-2.27-3.196-1.317-.74-3.093-1.179-5.021-1.179m-6.042 4.375c0-.709.518-1.479 1.634-2.106 1.097-.617 2.654-1.019 4.409-1.019 1.753 0 3.31.402 4.406 1.019 1.117.627 1.634 1.397 1.634 2.106 0 1.09-.033 1.704-.603 2.167-.308.252-.825.497-1.708.676-.881.178-2.085.282-3.73.282s-2.85-.104-3.73-.282c-.884-.178-1.4-.424-1.709-.675-.57-.464-.603-1.078-.603-2.168" clip-rule="evenodd"/></svg>