<svg xmlns="http://www.w3.org/2000/svg" viewBox="0 0 48 48" width="1em" height="1em" fill="currentColor" aria-hidden="true" data-slot="icon"><path fill-rule="evenodd" d="M36.898 3.976a5.04 5.04 0 1 1 7.126 7.126l-8.504 8.504-.06.06c-.46.46-.782.784-1.144 1.064q-.636.497-1.366.846c-.412.196-.844.34-1.464.546l-.08.028-3.676 1.224a2.454 2.454 0 0 1-3.104-3.104l1.224-3.676.028-.08c.206-.62.35-1.052.546-1.464.232-.484.516-.944.846-1.368.28-.36.602-.68 1.064-1.142l.06-.06zm5.004 2.12a2.04 2.04 0 0 0-2.884 0l-.262.264.032.1a4.46 4.46 0 0 0 1.066 1.686c.499.504 1.111.88 1.786 1.1l.262-.264a2.04 2.04 0 0 0 0-2.886m-2.53 5.418a7.5 7.5 0 0 1-2.884-2.884l-5.972 5.97c-.544.546-.728.732-.88.928a4.4 4.4 0 0 0-.504.812c-.106.226-.192.472-.436 1.204l-.45 1.35.86.86 1.35-.452c.732-.242.978-.328 1.204-.434q.433-.208.812-.504c.196-.152.382-.336.928-.88z" clip-rule="evenodd"/><path fill-rule="evenodd" d="M24 2.5h-.114c-4.618 0-8.236 0-11.06.38-2.888.388-5.168 1.2-6.958 2.988-1.79 1.79-2.6 4.07-2.988 6.96-.38 2.822-.38 6.44-.38 11.058v.228c0 4.618 0 8.236.38 11.06.388 2.888 1.2 5.168 2.988 6.958 1.79 1.79 4.07 2.6 6.96 2.988 2.822.38 6.44.38 11.058.38h.228c4.618 0 8.236 0 11.06-.38 2.888-.388 5.168-1.2 6.958-2.988 1.79-1.79 2.6-4.07 2.988-6.96.38-2.822.38-6.44.38-11.058V24a1.5 1.5 0 1 0-3 0c0 4.756-.004 8.172-.352 10.772l-.044.304-5.548-4.994a7.5 7.5 0 0 0-9.33-.56l-.596.42a2.5 2.5 0 0 1-3.204-.28l-8.58-8.58a6.1 6.1 0 0 0-8.33-.276l-1.014.886c.01-3.584.06-6.306.35-8.464.344-2.558 1-4.1 2.138-5.24 1.14-1.138 2.68-1.792 5.238-2.136C15.828 5.504 19.244 5.5 24 5.5a1.5 1.5 0 0 0 0-3M5.852 34.772c.344 2.558 1 4.1 2.138 5.24 1.14 1.138 2.68 1.792 5.238 2.136 2.6.348 6.016.352 10.772.352s8.172-.004 10.772-.352c2.558-.344 4.1-1 5.24-2.138.5-.502.91-1.087 1.208-1.73a1.5 1.5 0 0 1-.224-.166l-6.446-5.8a4.5 4.5 0 0 0-5.6-.34l-.594.42a5.5 5.5 0 0 1-7.052-.61l-8.58-8.58a3.1 3.1 0 0 0-4.234-.14L5.5 25.68c.006 3.896.046 6.81.352 9.092" clip-rule="evenodd"/></svg>