<svg xmlns="http://www.w3.org/2000/svg" aria-hidden="true" data-slot="icon" viewBox="0 0 24 24" width="1em" height="1em" fill="currentColor"><path fill-rule="evenodd" d="M12 1.25a.75.75 0 0 1 .75.75v1a.75.75 0 1 1-1.5 0V2a.75.75 0 0 1 .75-.75M4.399 4.399a.75.75 0 0 1 1.06 0l.393.392a.75.75 0 0 1-1.06 1.061l-.393-.393a.75.75 0 0 1 0-1.06m15.202 0a.75.75 0 0 1 0 1.06l-.393.393a.75.75 0 0 1-1.06-1.06l.393-.393a.75.75 0 0 1 1.06 0M12 6.75a5.25 5.25 0 1 0 0 10.5 5.25 5.25 0 0 0 0-10.5M5.25 12a6.75 6.75 0 1 1 13.5 0 6.75 6.75 0 0 1-13.5 0m-4 0a.75.75 0 0 1 .75-.75h1a.75.75 0 1 1 0 1.5H2a.75.75 0 0 1-.75-.75m19 0a.75.75 0 0 1 .75-.75h1a.75.75 0 1 1 0 1.5h-1a.75.75 0 0 1-.75-.75m-2.102 6.148a.75.75 0 0 1 1.06 0l.393.393a.75.75 0 1 1-1.06 1.06l-.393-.393a.75.75 0 0 1 0-1.06m-12.296 0a.75.75 0 0 1 0 1.06l-.393.393a.75.75 0 1 1-1.06-1.06l.392-.393a.75.75 0 0 1 1.061 0M12 20.25a.75.75 0 0 1 .75.75v1a.75.75 0 1 1-1.5 0v-1a.75.75 0 0 1 .75-.75" clip-rule="evenodd"/></svg>