<svg xmlns="http://www.w3.org/2000/svg" aria-hidden="true" data-slot="icon" viewBox="0 0 20 20" width="1em" height="1em" fill="currentColor"><path fill-rule="evenodd" d="M9.365 2.332c-.511.068-1.143.213-2.041.42L6.3 2.99c-.759.175-1.282.297-1.681.433-.386.133-.604.263-.769.428s-.295.382-.427.768c-.137.4-.258.922-.433 1.68l-.237 1.024c-.208.9-.353 1.531-.42 2.043-.067.498-.051.835.037 1.142s.254.601.574.989c.329.398.786.857 1.439 1.51l1.525 1.524c1.132 1.133 1.938 1.937 2.632 2.466.678.518 1.175.712 1.679.712.505 0 1-.194 1.68-.712.692-.529 1.499-1.334 2.631-2.466 1.134-1.134 1.938-1.94 2.467-2.632.517-.68.712-1.175.712-1.68s-.194-1-.713-1.68c-.528-.692-1.333-1.5-2.466-2.632l-1.525-1.525c-.651-.651-1.11-1.109-1.508-1.438-.388-.32-.682-.486-.99-.573-.306-.089-.643-.104-1.14-.038m-.164-1.239c.597-.08 1.122-.077 1.65.075.529.152.975.428 1.44.81.45.373.95.873 1.576 1.498l1.58 1.58c1.091 1.092 1.956 1.957 2.541 2.725.604.79.97 1.55.97 2.437 0 .888-.366 1.648-.969 2.438-.586.768-1.45 1.633-2.542 2.724l-.067.067c-1.092 1.092-1.957 1.957-2.725 2.542-.79.603-1.55.969-2.437.969-.888 0-1.648-.366-2.438-.968-.767-.586-1.632-1.45-2.725-2.543l-1.58-1.58c-.624-.626-1.125-1.126-1.497-1.576-.383-.466-.659-.911-.81-1.44s-.155-1.053-.075-1.65c.075-.579.235-1.269.434-2.13l.25-1.086c.166-.72.301-1.306.462-1.774.169-.489.38-.9.726-1.246.347-.347.758-.559 1.247-.725.467-.162 1.054-.297 1.773-.463l1.086-.25c.862-.2 1.552-.358 2.13-.435m-1.294 5.57a1.042 1.042 0 1 0-1.474 1.474A1.042 1.042 0 0 0 7.91 6.662M5.552 5.78a2.292 2.292 0 1 1 3.24 3.24 2.292 2.292 0 1 1-3.24-3.24m10.323 3.379a.625.625 0 0 1 0 .883l-5.815 5.817a.625.625 0 0 1-.884-.883l5.815-5.817a.624.624 0 0 1 .884 0" clip-rule="evenodd"/></svg>