<svg width="120" height="120" viewBox="0 0 120 120" fill="none" xmlns="http://www.w3.org/2000/svg">
<path d="M20.1377 12.2158H101.456V120H20.1377V12.2158Z" fill="#006CA2"/>
<path d="M18.0938 16.2188H103.603V91.0969H18.0938V16.2188Z" fill="#006CA2"/>
<path d="M99.2154 2.60645H20.7748C16.0123 2.60645 12.1123 6.49707 12.1123 11.2689V120H45.4873V107.475C45.4873 104.822 47.6529 102.647 50.3061 102.647H69.6748C72.3373 102.647 74.5123 104.822 74.5123 107.475V120H107.887V11.2689C107.878 6.50645 103.987 2.60645 99.2154 2.60645ZM35.7654 82.6689H23.5779V67.9502H35.7654V82.6689ZM35.7654 59.2689H23.5779V44.5502H35.7654V59.2689ZM35.7654 35.8783H23.5779V21.1596H35.7654V35.8783ZM56.1936 82.6689H43.9967V67.9502H56.1936V82.6689ZM56.1936 59.2689H43.9967V44.5502H56.1936V59.2689ZM56.1936 35.8783H43.9967V21.1596H56.1936V35.8783ZM76.6123 82.6689H64.4248V67.9502H76.6123V82.6689ZM76.6123 59.2689H64.4248V44.5502H76.6123V59.2689ZM76.6123 35.8783H64.4248V21.1596H76.6123V35.8783ZM97.0404 82.6689H84.8436V67.9502H97.0404V82.6689ZM97.0404 59.2689H84.8436V44.5502H97.0404V59.2689ZM97.0404 35.8783H84.8436V21.1596H97.0404V35.8783Z" fill="#78A3AD"/>
</svg>
