<svg width="120" height="120" viewBox="0 0 120 120" fill="none" xmlns="http://www.w3.org/2000/svg">
<path d="M106.472 36.019C106.406 33.5627 106.181 31.4346 106.191 28.9502C106.247 16.2846 93.9846 16.2565 77.4565 16.3877C77.569 16.3127 77.6815 16.2752 77.7846 16.2846C73.8752 16.3221 71.0721 16.3409 68.794 16.3409C65.4752 16.3127 63.1502 16.3127 61.0971 16.3127C59.0533 16.3034 56.7283 16.3127 53.4002 16.3409C51.1221 16.3409 48.3096 16.3221 44.4096 16.2846C44.5221 16.2846 44.6252 16.3221 44.7377 16.3877C28.2096 16.2565 15.9471 16.2752 16.0033 28.9502C16.0127 31.4346 15.7783 33.5627 15.7221 36.019C15.3752 49.9596 16.8002 62.0815 16.2752 75.1971C15.469 95.5877 16.3408 87.5721 16.3408 103.744C16.3408 110.231 21.5252 116.728 29.6252 116.728C35.5783 116.728 48.0096 119.053 61.0877 118.472C74.1752 119.053 86.5971 116.728 92.5502 116.728C100.66 116.728 105.835 110.231 105.835 103.744C105.835 87.5815 106.706 95.5877 105.9 75.1971C105.394 62.0815 106.819 49.9596 106.472 36.019ZM25.969 30.994C29.6815 25.7159 33.8533 26.5127 42.2627 28.519C45.3565 29.2596 76.8377 29.3346 79.9127 28.519C87.4315 26.5315 92.494 25.7159 96.2065 30.994C98.7752 34.6409 97.519 40.1159 90.2908 43.5284C85.5658 45.7502 38.6533 46.9502 31.8846 43.5284C24.7596 39.919 23.4096 34.6409 25.969 30.994Z" fill="#F9D28E"/>
<path d="M30.9186 37.1531C28.5468 34.8188 25.8843 33.3844 21.928 34.8938C20.4749 35.4469 18.628 35.8406 17.6718 34.2375C16.0499 31.5 16.9405 28.7813 18.3843 26.2219C19.228 24.7125 20.7655 24.7875 22.4624 25.6031C23.2593 25.9875 24.2343 25.5094 25.1999 25.6688C26.6999 24.7594 27.1874 24.0281 26.7561 22.6031C25.8561 19.575 27.6936 17.6156 30.6655 15.9563C36.1593 12.8906 38.9249 13.5938 40.9124 18.7406C41.1468 19.3594 41.2874 20.0156 42.7686 20.5219C43.753 12.6281 50.5311 9.96565 59.1749 9.26252C64.228 8.85002 63.703 12.8344 65.6249 14.9344C67.8843 14.2688 67.2843 12.4031 68.3061 11.2688C70.7436 8.58752 76.7249 7.78127 79.8093 10.5656C83.3718 13.7813 86.3999 13.0688 89.9905 11.2219C91.9968 7.30315 94.4343 7.33127 97.0218 10.8188C98.1561 12.3563 99.2061 13.9875 99.853 15.675C100.65 17.7469 100.631 19.65 96.6749 19.4719C93.5343 19.3313 92.4561 21.0469 92.1468 23.2313C91.9499 23.6906 91.7343 24.3563 91.2468 24.4313C86.9249 25.1438 84.1499 26.8688 84.1874 30.7125C84.1874 31.0969 83.3436 31.3406 82.7249 31.4156C79.1436 30.6844 75.6749 29.8406 73.1249 27.4594C71.2874 25.7438 68.9718 25.5469 66.5061 26.6813C64.9124 27.4219 63.2811 28.0313 61.4436 28.3406C53.6249 29.625 52.9874 30.7782 56.5593 36.8531C56.728 37.1438 56.728 37.4719 56.6624 37.8094C53.5968 40.3313 49.903 39.4969 46.2843 39.0938C42.1311 38.1094 41.9436 34.6125 39.6843 32.4375C36.3561 30.8063 35.3811 31.9031 35.128 34.6313C34.9686 36.3938 35.353 39.5719 30.9186 37.1531Z" fill="#BDCF46"/>
<path d="M90.0001 11.2217C85.0126 16.3123 85.0313 16.2935 79.3126 11.4185C77.1469 9.58103 74.2782 10.2185 71.7188 10.4904C69.0938 10.7623 68.9532 12.5904 68.8969 14.306C68.8501 15.7779 68.9813 17.6623 66.5063 17.7279C64.1251 17.7935 62.7469 16.1435 62.8126 14.4092C62.9813 9.6279 59.9251 9.8529 55.6782 11.006C49.8001 12.6091 44.0813 14.1279 45.272 20.606C45.5532 22.1248 44.5595 23.1935 42.4126 23.0529C40.172 22.9029 39.3188 21.7123 39.122 20.0342C38.8782 17.9435 39.8438 14.2779 35.3532 15.5529C32.2501 16.4248 26.9345 17.5498 28.172 22.0217C28.8095 24.3279 27.4782 25.9685 23.7563 26.1279C23.8501 24.3467 24.7126 22.2842 22.5282 21.0373C17.972 18.431 20.2876 15.8529 22.4626 13.4154C24.4595 11.1654 28.0782 9.6279 32.1188 11.9529C35.4751 13.8748 40.1532 10.9779 38.8782 7.68727C37.3876 3.83415 40.4907 3.27165 43.3032 2.68103C46.2001 2.07165 49.6501 1.46227 50.1376 5.44665C50.4657 8.13728 53.5126 8.10915 55.8563 8.0529C58.6595 7.9779 62.8126 7.93103 63.0938 5.34352C63.8157 -1.35023 69.8813 0.7779 74.3251 0.72165C78.6657 1.19977 82.8563 1.3404 82.6032 7.04978C81.9938 9.5154 86.7376 10.8842 90.0001 11.2217Z" fill="#81B012"/>
<path d="M83.4282 32.6437C82.0219 26.503 86.7282 25.0405 92.9344 24.7124C93.1876 25.7437 93.9282 26.3624 95.0907 26.9343C99.0563 28.8468 99.6001 31.0312 95.5501 33.3937C93.2438 34.7343 92.1188 36.3187 94.4063 38.3343C96.7969 40.4437 95.3907 42.3655 93.8251 44.1374C91.8751 46.3312 89.3532 47.5687 85.8751 46.1343C83.4001 44.3155 85.7344 42.0937 85.1251 40.0218C82.8469 40.1624 81.2344 41.8124 78.8719 41.5687C76.2938 41.3062 75.497 42.4593 74.9157 44.3624C73.3688 49.4812 69.4782 50.7562 63.5907 48.3187C61.4344 47.428 59.6063 45.9843 56.9626 45.9374C56.3251 45.9374 55.6969 45.9187 55.0501 45.9187C47.4844 45.1405 45.8532 43.9593 46.0876 39.5249C49.7907 39.1499 53.7376 40.5562 57.2157 38.5593C56.3157 35.1093 56.5876 31.7624 61.0501 30.1405C65.1376 28.6499 69.1594 29.4374 71.9438 32.4749C75.7688 36.5905 79.5938 33.2718 83.4282 32.6437Z" fill="#A5C211"/>
<path d="M46.1058 39.5065C47.2496 43.9127 51.1964 44.7752 56.0246 44.5127C58.1339 46.3034 58.6871 49.144 57.2152 50.4846C53.0902 54.2252 55.4902 57.9658 55.9402 61.7627C56.0996 63.094 56.2402 64.4252 54.7777 65.4284C52.1058 65.5784 51.3933 64.3315 50.9152 62.4565C49.9121 58.519 47.0527 55.2471 44.3246 51.9659C42.4121 49.6784 39.9933 47.9534 36.1402 48.4783C34.5839 47.3065 34.5652 45.8065 35.2683 44.4471C36.8433 41.3721 37.3027 38.3065 36.6558 34.9877C36.1308 32.2877 38.0339 31.5096 41.1089 32.5971C45.4777 33.6565 42.7496 37.9784 46.1058 39.5065Z" fill="#B4D21C"/>
<path d="M57.2153 44.5217C60.0465 44.1374 61.6309 45.778 63.6278 46.8936C69.0465 49.9217 73.0403 48.4217 73.359 43.2561C73.509 40.7717 73.6966 38.878 77.859 40.2186C79.9215 40.8842 81.8809 40.5186 83.1653 38.803C83.859 37.8749 84.4403 36.478 86.3434 37.5842C87.8247 38.4467 88.4715 39.5342 87.4122 40.9686C86.2497 42.553 85.584 44.2499 85.884 46.1249C81.4872 43.7342 78.5809 46.1436 75.909 48.328C71.184 52.1905 67.9215 56.953 64.0403 61.3405C62.7747 62.7655 62.0715 64.6124 59.7372 65.3249C57.3465 62.7842 57.5059 61.7999 61.0965 57.2249C57.4028 58.753 55.4997 57.1311 56.034 54.6186C56.7653 51.2436 55.959 47.8124 57.2153 44.5217Z" fill="#B5D21C"/>
<path d="M41.1185 32.5874C39.9466 32.6811 37.6497 32.7936 38.0622 33.4593C41.3622 38.8593 36.3466 43.4624 36.1497 48.4686C34.9591 49.9593 33.4029 50.428 31.5747 49.2561C28.5747 47.3436 26.8216 44.7843 26.7279 41.7468C26.6716 40.078 28.4622 39.8811 30.2904 39.9561C30.731 39.9749 31.2372 39.0936 31.7154 38.6249C35.1654 39.4405 34.7529 37.7155 34.5466 35.9811C34.0404 31.9311 35.5497 31.1718 41.1185 32.5874Z" fill="#A5C213"/>
<path d="M57.216 44.5219C57.2441 47.475 57.2066 50.4281 57.3473 53.3719C57.4035 54.5906 56.541 56.2875 58.5004 56.8594C60.0004 57.3 60.8535 55.8281 61.941 55.1437C62.541 54.7687 63.1691 54.4125 64.6598 53.5406C62.466 57.9 58.4066 60.9562 59.7285 65.3156C58.116 66.5625 56.466 66.7125 54.7785 65.4094C54.0473 61.0781 53.9816 56.625 51.1504 52.6219C59.8035 52.4812 54.4691 47.2219 56.0254 44.5031C56.4285 44.4656 56.8223 44.475 57.216 44.5219Z" fill="#D0E468"/>
<path d="M82.3688 30.4968C76.65 35.6061 74.4188 35.6718 69.3 30.5249C67.1813 28.3968 66.1031 29.7186 63.2156 30.1968C60.1969 30.703 57.3469 30.8624 57.4406 33.2905C57.4781 34.4249 57.525 35.5968 56.1844 36.3937C49.9313 36.1499 53.0344 32.3343 52.5844 30.0468C52.1156 27.6186 54.0938 25.2187 57.1219 25.3405C60.5063 25.4718 63.8344 25.0124 66.3844 22.8186C67.5844 21.7874 69.525 23.0437 70.7906 23.6999C74.7938 25.7812 78.5344 28.1999 82.3688 30.4968Z" fill="#ECAF4C"/>
<path d="M93.8346 17.7471C93.844 17.7752 94.1065 18.2065 94.2283 18.6752C94.6502 20.269 90.2533 30.9096 88.7815 31.8846C86.9908 33.0752 85.2283 33.3283 83.3721 32.3252C81.4221 31.2752 80.8315 29.3158 81.5721 27.6471C82.6502 25.2002 82.8846 23.0252 82.6502 20.4846C82.4065 17.794 83.8502 16.6033 86.8783 15.8252C89.7846 15.0752 92.2408 14.8408 93.8346 17.7471Z" fill="#C47930"/>
<path d="M99.2065 31.7156C99.1877 31.7531 98.9065 32.3156 98.5127 32.7843C97.1815 34.3593 87.7502 42.9 85.9034 42.1312C83.6534 41.1843 81.6846 34.725 80.3346 31.8281C78.9752 29.55 79.9596 26.9812 82.0502 26.5125C85.1252 25.8375 87.4315 24.5156 89.8034 22.4718C92.3252 20.2968 95.5315 20.3437 98.1096 22.8281C100.594 25.1906 101.147 28.0312 99.2065 31.7156Z" fill="#ECAF4C"/>
<path d="M103.247 36.2532C103.228 36.2907 102.947 36.8532 102.553 37.3219C101.222 38.8969 91.7903 47.4375 89.9434 46.6688C87.6934 45.7219 85.7246 39.2626 84.3746 36.3657C83.0153 34.0876 83.9996 31.5188 86.0903 31.05C89.1653 30.375 91.4715 29.0532 93.8434 27.0094C96.3653 24.8344 99.5715 24.8813 102.15 27.3657C104.634 29.7282 105.187 32.5782 103.247 36.2532Z" fill="#BDCF46"/>
<path d="M70.1902 40.5186C70.1621 40.5467 69.7402 41.0155 69.234 41.353C67.5184 42.4967 56.0902 48.0842 54.534 46.8373C52.6402 45.3092 52.5277 38.5498 52.0402 35.3905C51.3652 32.8311 53.0246 30.628 55.1621 30.7592C58.3027 30.9655 60.8809 30.3373 63.7309 29.0248C66.759 27.6373 69.8246 28.5655 71.6152 31.6686C73.3402 34.6405 73.0684 37.5186 70.1902 40.5186Z" fill="#81B012"/>
<path d="M55.5563 25.7907C55.5375 25.8188 55.3688 26.3157 55.0782 26.7376C54.1219 28.1626 47.1094 36.0938 45.5344 35.6251C43.6032 35.0532 41.4188 29.8876 40.0688 27.6188C38.7563 25.8563 39.3375 23.6438 41.025 23.072C43.4907 22.2282 45.2719 20.9251 47.0438 19.0126C48.9282 16.9876 51.5625 16.7251 53.8969 18.5345C56.1282 20.2688 56.8219 22.5751 55.5563 25.7907Z" fill="#C47930"/>
<path d="M33.2197 37.092C39.4803 36.2511 43.8486 30.3071 42.9767 23.8156C42.1048 17.3241 36.3228 12.7435 30.0623 13.5844C23.8017 14.4253 19.4334 20.3693 20.3053 26.8608C21.1772 33.3522 26.9592 37.9329 33.2197 37.092Z" fill="#CD4525"/>
<path d="M27.3186 33.6657C28.5561 34.3594 29.9529 34.7719 31.4248 34.8188C31.8467 34.8282 32.1842 34.4532 32.1279 34.0219L31.4154 28.7344C31.3311 28.1063 30.5623 27.8907 30.1967 28.3969L27.0936 32.6157C26.8404 32.9532 26.9436 33.4594 27.3186 33.6657ZM23.5123 20.8782C22.8467 22.1907 22.4717 23.6719 22.4717 25.2282C22.4717 25.6501 22.8467 25.9782 23.2498 25.9219L28.4061 25.2282C29.0061 25.1438 29.2123 24.3469 28.7248 23.9626L24.5342 20.6438C24.4557 20.5802 24.3638 20.5353 24.2654 20.5124C24.1669 20.4896 24.0646 20.4895 23.9661 20.5121C23.8677 20.5346 23.7756 20.5793 23.697 20.6428C23.6184 20.7062 23.5552 20.7867 23.5123 20.8782ZM28.9311 16.2469C27.4873 16.6969 26.2123 17.4938 25.1904 18.5344C24.8904 18.8344 24.9186 19.3407 25.2561 19.6126L29.4748 22.9501C29.9623 23.3344 30.6467 22.9219 30.5623 22.2938L29.8311 16.8282C29.8162 16.7279 29.7802 16.6318 29.7253 16.5466C29.6704 16.4613 29.5979 16.3887 29.5127 16.3337C29.4275 16.2787 29.3316 16.2425 29.2313 16.2275C29.1309 16.2125 29.0286 16.2192 28.9311 16.2469ZM35.9904 17.0344C34.6967 16.3032 33.2342 15.8719 31.6967 15.8532C31.2842 15.8438 30.9748 16.2282 31.0311 16.6501L31.7717 22.1344C31.8561 22.7626 32.6248 22.9782 32.9904 22.4719L36.2154 18.0844C36.4686 17.7469 36.3654 17.2501 35.9904 17.0344ZM34.2186 34.4626C35.6135 34.0542 36.8857 33.307 37.9217 32.2876C38.2311 31.9876 38.2123 31.4719 37.8654 31.2001L33.7123 27.9094C33.2248 27.5251 32.5404 27.9376 32.6248 28.5657L33.3373 33.8719C33.4029 34.3126 33.8154 34.5844 34.2186 34.4626ZM34.4623 26.9157L38.6436 30.2344C38.9811 30.4969 39.4592 30.3938 39.6561 30.0188C40.3498 28.7251 40.7529 27.2438 40.7998 25.6969C40.8092 25.2563 40.4436 24.9001 40.0217 24.9563L34.7811 25.6594C34.1717 25.7344 33.9748 26.5313 34.4623 26.9157ZM40.4436 22.8094C40.0217 21.2813 39.2529 19.9219 38.2311 18.8251C38.1651 18.7499 38.083 18.6906 37.991 18.6514C37.899 18.6122 37.7994 18.5942 37.6995 18.5987C37.5996 18.6032 37.502 18.6301 37.4139 18.6774C37.3258 18.7247 37.2494 18.7912 37.1904 18.8719L33.9654 23.2594C33.5998 23.7563 34.0029 24.4782 34.6029 24.3938L39.8717 23.6907C40.2842 23.6251 40.5561 23.2126 40.4436 22.8094ZM22.8936 28.0876C23.3193 29.5054 24.0632 30.8072 25.0686 31.8938C25.3592 32.2126 25.8561 32.1844 26.1092 31.8376L29.2123 27.6188C29.5779 27.1219 29.1748 26.4001 28.5748 26.4844L23.4467 27.1688C23.0248 27.2251 22.7623 27.6657 22.8936 28.0876Z" fill="#EC6C30"/>
<path d="M101.147 43.9783L76.6873 36.3096C76.5844 36.28 76.4884 36.2301 76.405 36.1628C76.3217 36.0956 76.2526 36.0123 76.202 35.918C76.1513 35.8236 76.12 35.72 76.11 35.6134C76.0999 35.5068 76.1114 35.3992 76.1436 35.2971C78.6467 27.9752 85.7154 24.3471 92.9811 26.4096C100.031 28.4064 104.259 35.5971 102.947 42.9096C102.797 43.7252 101.934 44.2033 101.147 43.9783Z" fill="#CD4525"/>
<path d="M81.3562 31.8748C80.5748 32.5233 79.9553 33.345 79.5469 34.2748C79.5201 34.3353 79.5065 34.4008 79.5068 34.467C79.5072 34.5332 79.5216 34.5985 79.5491 34.6588C79.5765 34.719 79.6164 34.7727 79.6661 34.8164C79.7158 34.8601 79.7743 34.8928 79.8375 34.9123L83.2031 35.8685C83.5969 35.981 83.9344 35.5404 83.7375 35.1748L82.0406 32.006C82.0089 31.9473 81.9645 31.8965 81.9107 31.8571C81.8569 31.8177 81.795 31.7907 81.7296 31.7781C81.6641 31.7656 81.5966 31.7677 81.532 31.7844C81.4675 31.8011 81.4074 31.832 81.3562 31.8748ZM86.5969 28.7529C85.5562 28.8466 84.5812 29.2029 83.7375 29.7654C83.4937 29.9248 83.4375 30.2716 83.625 30.506L85.9969 33.3748C86.2687 33.7029 86.7937 33.5248 86.8312 33.0935L87.1219 29.2873C87.1261 29.2168 87.1155 29.1462 87.0908 29.08C87.0661 29.0139 87.0277 28.9537 86.9782 28.9033C86.9287 28.853 86.8692 28.8135 86.8035 28.7876C86.7378 28.7617 86.6674 28.7499 86.5969 28.7529ZM92.2594 28.9966C91.3439 28.5284 90.3247 28.2994 89.2969 28.331C89.0062 28.3404 88.7719 28.6029 88.8094 28.8935L89.7375 32.6248C89.7937 33.0466 90.3281 33.1779 90.5906 32.8216L92.4094 29.7091C92.6062 29.4748 92.5219 29.1373 92.2594 28.9966ZM100.922 39.1779C100.978 40.1623 100.819 41.1748 100.397 42.1404C100.284 42.4029 99.9656 42.506 99.7312 42.3654L96.7312 40.556C96.3844 40.3404 96.4687 39.7966 96.8719 39.6935L100.35 38.7654C100.641 38.6904 100.903 38.8873 100.922 39.1779ZM98.9812 33.8154C99.6187 34.6404 100.031 35.5966 100.2 36.5998C100.247 36.8904 100.031 37.1623 99.7406 37.181L95.9062 37.2748C95.475 37.3029 95.25 36.7966 95.55 36.4779L98.25 33.806C98.4562 33.5716 98.8031 33.5904 98.9812 33.8154ZM94.875 29.8966C95.8594 30.2529 96.7125 30.8435 97.3875 31.6029C97.5844 31.8185 97.5469 32.1748 97.3031 32.3435L94.0969 34.3029C93.75 34.556 93.2906 34.2466 93.3656 33.8154L94.2375 30.2716C94.2937 29.9716 94.5937 29.7935 94.875 29.8966Z" fill="#EC6C30"/>
<path d="M60.1785 32.5126L40.5941 45.9189C40.2566 46.1626 39.7973 46.0501 39.591 45.6658C36.1129 38.972 37.8191 31.2564 43.491 27.1314C48.9941 23.1283 56.3348 24.6658 60.5066 30.4501C60.9754 31.097 60.7973 32.0626 60.1785 32.5126Z" fill="#CD4525"/>
<path d="M40.3499 39.4876C40.3312 40.472 40.5093 41.4845 40.9124 42.422C41.0249 42.6845 41.3062 42.7688 41.5124 42.6188L44.1374 40.7063C44.4468 40.4813 44.3437 39.9376 43.9874 39.8438L40.8468 39.0376C40.5937 38.9813 40.3593 39.197 40.3499 39.4876ZM41.3249 33.4876C40.7718 34.3313 40.4437 35.3063 40.3218 36.3095C40.2843 36.6001 40.4906 36.872 40.7531 36.8813L44.0812 36.9751C44.4656 36.9845 44.6531 36.4688 44.3812 36.1595L41.9812 33.4407C41.7937 33.2251 41.4749 33.2438 41.3249 33.4876ZM44.8218 29.372C43.9499 29.7657 43.2093 30.3845 42.6281 31.1626C42.4593 31.3876 42.5062 31.7345 42.7218 31.9032L45.7968 33.6563C46.1155 33.8907 46.5187 33.572 46.4343 33.1407L45.4031 29.7188C45.3468 29.4282 45.0656 29.2595 44.8218 29.372ZM56.8124 29.522C57.5156 30.122 58.0968 30.9188 58.5093 31.8563C58.6218 32.1095 58.4999 32.4188 58.2656 32.5032L55.2843 33.572C54.9374 33.6938 54.6187 33.272 54.7874 32.897L56.2031 29.672C56.3062 29.4188 56.5968 29.3438 56.8124 29.522ZM52.0405 27.4688C52.978 27.5251 53.8593 27.8438 54.6374 28.3782C54.8624 28.5282 54.9187 28.8751 54.7593 29.1095L52.5656 32.0626C52.3312 32.4001 51.8531 32.2407 51.8156 31.8095L51.5999 28.0126C51.5624 27.7032 51.778 27.4501 52.0405 27.4688ZM46.9687 27.9938C47.7597 27.5008 48.671 27.2349 49.6031 27.2251C49.8656 27.2251 50.0812 27.4782 50.0531 27.7688L49.4906 31.472C49.4531 31.9032 48.9749 32.0438 48.7312 31.7063L46.8468 28.7251C46.6781 28.4813 46.7343 28.1345 46.9687 27.9938Z" fill="#EC6C30"/>
<path d="M68.3812 40.1533C68.2687 37.7721 71.0906 22.5471 72.8718 21.019C75.0468 19.1533 77.3812 18.6096 80.1281 19.8096C83.0062 21.0658 84.2437 23.7565 83.6156 26.1752C82.6968 29.7283 82.8468 32.8127 83.7187 36.3377C84.6468 40.0783 81.7687 45.319 78.9562 44.8315C74.6999 44.3815 68.4937 42.7408 68.3812 40.1533Z" fill="#ECAF4C"/>
<path d="M37.978 46.378C37.9312 46.3499 37.1624 45.9936 36.5343 45.478C34.3968 43.7155 29.8874 25.9124 30.8999 23.3905C32.1374 20.3061 34.4437 20.1655 37.9124 19.9311C41.5499 19.6874 44.0624 20.1186 44.7093 22.9405C45.6655 27.0843 47.4749 30.178 50.2687 33.3374C53.2312 36.6936 53.2124 41.0436 49.9218 44.6249C46.7718 48.0468 42.9468 48.8811 37.978 46.378ZM69.7593 42.5061C69.7218 42.4874 69.028 42.253 68.4374 41.8686C66.4405 40.5655 62.2218 26.5686 61.4999 24.3374C60.628 21.6468 63.8905 20.4374 66.8624 19.4624C69.9562 18.8999 71.8499 19.1624 73.1624 21.2905C74.9718 24.2343 76.3312 27.703 79.0218 30.1405C81.8812 32.728 82.2937 36.4499 79.8187 39.8436C77.4468 43.0874 74.2593 44.1749 69.7593 42.5061Z" fill="#C47930"/>
<path d="M78.8248 42.2533C78.806 42.2252 78.4779 41.8971 78.2623 41.4939C77.531 40.1252 80.006 30.0377 80.3717 28.4158C80.8123 26.4658 83.1842 26.5596 85.3123 26.7283C87.356 27.1971 88.3967 27.8721 88.4154 29.5877C88.4435 31.9596 88.0123 34.5471 88.7529 36.8252C89.5404 39.2439 88.4529 41.7471 85.7717 43.2471C83.2029 44.6908 80.9154 44.5314 78.8248 42.2533Z" fill="#C47930"/>
<path d="M42.225 38.1842C42.2062 38.2217 41.9343 38.7842 41.5312 39.2342C40.1719 40.7811 26.4281 43.6498 24.4781 42.8248C22.0969 41.8123 20.6812 40.1811 20.4937 37.5748C20.2969 34.8467 21.9187 32.8779 24.1031 32.4748C27.3094 31.8748 29.6906 30.6092 32.1281 28.6123C34.7156 26.4936 36.8812 27.1498 39.6469 29.7186C42.3 32.1748 44.1469 34.5373 42.225 38.1842Z" fill="#EDAF4D"/>
<path d="M98.5123 43.9031C93.3186 46.8562 86.5217 57.0844 81.9748 52.5562C80.2592 50.85 77.5686 50.8594 75.2061 50.6437C72.7873 50.4281 72.4217 51.75 72.1405 53.0062C71.9061 54.0844 71.7842 55.5 69.5248 55.1437C67.3498 54.8062 66.328 53.3719 66.6092 52.0969C67.3873 48.6 64.5936 48.2625 60.5811 48.4406C55.0405 48.675 49.6592 48.8812 49.8842 53.8594C49.9405 55.0219 48.8998 55.6594 46.9686 55.2C44.9623 54.7312 44.3342 53.7187 44.3811 52.4437C44.4373 50.8594 45.7873 48.3094 41.5498 48.525C38.6248 48.675 33.6467 48.6469 34.1905 52.1437C34.4717 53.9437 33.0467 54.9469 29.6436 54.4594C29.9623 53.1562 31.0123 51.7781 29.1936 50.5031C25.4061 47.85 29.1092 39.1875 31.3967 37.7344C33.5061 36.3937 36.9842 35.8406 40.3498 38.2031C43.1436 40.1625 47.7655 38.775 47.0436 36.1406C46.1905 33.0562 49.0873 33.1406 51.7123 33.15C54.4217 33.1687 60.2623 38.8031 62.3905 39.1312C64.9498 39.5344 68.7186 40.1625 69.3092 38.2969C70.8373 33.4687 79.4248 35.2594 83.5686 36.3844C88.6686 37.575 95.5967 43.1344 98.5123 43.9031Z" fill="#81B012"/>
<path d="M106.472 36.0189C106.444 33.5627 106.865 31.3408 106.19 28.9502C105.59 26.8502 104.906 25.0971 104.109 23.6252C104.119 23.7846 104.137 23.9439 104.137 24.0939C104.137 28.0502 105.956 30.0564 101.728 33.1596C101.7 36.1877 98.2123 41.1283 90.3092 43.5189C85.3123 45.0283 36.9373 46.4627 30.1686 43.0408C25.3029 40.5752 21.806 36.2439 21.7311 33.2721C17.4842 30.1596 18.0654 28.0502 18.0654 24.0846C18.0654 23.9252 18.0842 23.7658 18.0935 23.6064C17.2967 25.0783 16.6123 26.8314 16.0123 28.9314C15.3373 31.3221 15.7873 33.5439 15.7311 36.0002L16.3592 103.716C16.3592 110.203 21.5436 116.7 29.6436 116.7C35.5967 116.7 48.0279 119.025 61.1061 118.444C74.1936 119.025 86.6154 116.7 92.5686 116.7C100.678 116.7 105.703 110.203 105.853 103.716C106.247 86.7189 106.547 43.4814 106.472 36.0189Z" fill="#F9D28E"/>
<path d="M93.5816 74.7188C98.569 74.7657 100.763 77.972 100.81 82.3126C100.866 87.0939 97.744 89.1657 93.0378 89.2501C88.2847 89.3345 86.0534 86.5313 85.6128 82.4345C85.1347 77.9907 88.7909 74.7657 93.5816 74.7188ZM32.3159 73.7532C34.4441 73.772 35.3815 75.1407 35.4003 76.997C35.419 79.0407 34.0878 79.922 32.0816 79.9595C30.0472 79.997 29.1003 78.797 28.9128 77.0532C28.7066 75.1501 30.2722 73.772 32.3159 73.7532ZM51.8534 84.3189C53.9816 84.3376 54.919 85.7064 54.9378 87.5626C54.9565 89.6063 53.6253 90.4876 51.6191 90.5251C49.5847 90.5626 48.6378 89.3626 48.4503 87.6188C48.244 85.7157 49.8003 84.3376 51.8534 84.3189ZM93.7972 52.3032C95.9253 52.322 96.8628 53.6907 96.8815 55.547C96.9003 57.5907 95.5691 58.472 93.5628 58.5095C91.5284 58.547 90.5815 57.347 90.394 55.6032C90.1878 53.7001 91.7534 52.322 93.7972 52.3032Z" fill="#ECAF4C"/>
<path d="M95.7379 93.9564C98.7098 94.1439 100.763 95.6533 100.81 98.6721C100.866 102.066 98.6347 103.594 95.3629 103.603C92.0629 103.613 90.5441 101.335 90.6379 98.6158C90.741 95.8971 92.4098 93.7596 95.7379 93.9564Z" fill="#EDAF4D"/>
<path d="M87.4402 93.0094C86.7933 95.2969 85.6214 96.5719 83.2027 96.4031C80.5308 96.2156 79.2277 94.8844 79.4902 92.2406C79.6964 90.1406 81.1027 89.1281 83.1277 89.2313C85.5745 89.3531 87.037 90.7219 87.4402 93.0094Z" fill="#EDB04E"/>
<path d="M27.6471 97.5751C24.6753 97.7626 22.6221 99.272 22.5753 102.291C22.519 105.684 24.7503 107.213 28.0221 107.222C31.3221 107.231 32.8409 104.953 32.7471 102.234C32.6534 99.5157 30.9753 97.3782 27.6471 97.5751Z" fill="#EDAF4D"/>
</svg>
