<svg xmlns="http://www.w3.org/2000/svg" fill="none" aria-hidden="true" data-slot="icon" viewBox="0 0 120 120"><path fill="#78A3AD" d="M31.322 32.897a3.277 3.277 0 0 1 0-4.64l5.962-5.963a3.277 3.277 0 0 1 4.64 0 3.275 3.275 0 0 1 0 4.64l-5.962 5.963a3.276 3.276 0 0 1-4.64 0m18.046 0a3.277 3.277 0 0 1 0-4.64l5.963-5.963a3.277 3.277 0 0 1 4.64 0 3.277 3.277 0 0 1 0 4.64l-5.962 5.963a3.277 3.277 0 0 1-4.64 0m38.316 36.328a3.276 3.276 0 0 1 0-4.64l5.963-5.963a3.277 3.277 0 0 1 4.64 0 3.277 3.277 0 0 1 0 4.64l-5.962 5.963a3.28 3.28 0 0 1-4.641 0m-.478 18.281a3.277 3.277 0 0 1 0-4.64l5.962-5.963a3.277 3.277 0 0 1 4.641 0 3.276 3.276 0 0 1 0 4.64l-5.962 5.963a3.277 3.277 0 0 1-4.641 0"/><path fill="#016CA2" d="M90.647 33.103s3.44 42.188 0 74.981c-.563 5.344-8.081 6.657-9.169 1.388-6.15-29.803-19.425-46.838-19.425-46.838zm-3.722-3.16s-42.187-3.44-74.981 0c-5.344.563-6.656 8.082-1.388 9.17 29.803 6.15 46.838 19.425 46.838 19.425zM40.313 79.689H7.519c-3.694 0-5.166 4.78-2.11 6.853L21.563 97.5zm0 0v32.793c0 3.694-4.782 5.166-6.854 2.11L22.5 98.438z"/><path fill="#40C0E7" d="M84.647 17.24 25.078 79.913a9.37 9.37 0 0 0-2.578 6.46v5.503a5.63 5.63 0 0 0 5.625 5.625h5.503a9.37 9.37 0 0 0 6.46-2.578l62.671-59.569a18.7 18.7 0 0 0 5.56-10.397l1.415-8.194c.666-3.834-2.672-7.162-6.496-6.497l-8.194 1.416a18.7 18.7 0 0 0-10.397 5.56"/><path fill="#78A3AD" d="m44.081 76.753-24.234 24.291s2.193-12.75 24.234-24.29"/><path fill="#016CA2" d="m44.081 76.753-24.234 24.291s12.562-2.025 24.234-24.29"/><path stroke="#016CA2" stroke-linecap="round" stroke-miterlimit="10" stroke-width=".281" d="m92.813 18.469 2.146-.225c4.641-.347 8.175 4.097 6.788 8.54"/></svg>