<svg xmlns="http://www.w3.org/2000/svg" fill="none" aria-hidden="true" data-slot="icon" viewBox="0 0 120 120" width="1em" height="1em"><path fill="#E0E0E0" d="m37.969 30.469-4.847.234.975 71.4c0 11.981 17.381 16.556 33.694 16.556v-88.19zm59.644 0 4.847.234-.975 71.4c0 11.981-17.382 16.556-33.694 16.556v-88.19z"/><path fill="#FAFAFA" d="M67.79 22.369c-8.662 0-16.771.993-22.828 2.793-5.203 1.547-8.306 3.572-8.306 5.42 0 1.846 3.103 3.871 8.307 5.418 6.056 1.8 14.165 2.794 22.828 2.794S84.563 37.8 90.619 36c5.203-1.547 8.306-3.572 8.306-5.419s-3.103-3.872-8.306-5.419c-6.056-1.8-14.166-2.793-22.828-2.793"/><path fill="#FACC30" d="m40.06 57.788.328 39.722c.262 2.23 2.09 4.378 4.584 5.521 4.463 2.053 13.2 4.069 22.875 4.069 9.235 0 17.09-1.837 21.656-3.769 2.888-1.218 5.222-3.675 5.57-5.793l.44-39.75"/><path fill="#E4A324" d="M67.79 64.631c15.316 0 27.732-3.064 27.732-6.843s-12.416-6.844-27.731-6.844-27.731 3.064-27.731 6.844 12.415 6.843 27.73 6.843"/><path fill="#CECFD0" d="M67.79 40.519c-19.771 0-34.678-4.266-34.678-9.928s14.907-9.928 34.678-9.928c19.772 0 34.679 4.265 34.679 9.928-.01 5.653-14.916 9.928-34.679 9.928m0-18.15c-8.662 0-16.771.994-22.828 2.794-5.203 1.546-8.306 3.572-8.306 5.418s3.103 3.872 8.306 5.42c6.057 1.8 14.166 2.793 22.828 2.793 8.663 0 16.772-.994 22.829-2.794 5.203-1.547 8.306-3.572 8.306-5.419s-3.103-3.872-8.306-5.418c-6.057-1.8-14.166-2.794-22.829-2.794"/><path fill="#E4A324" d="M80.42 101.466a1.322 1.322 0 1 0 0-2.644 1.322 1.322 0 0 0 0 2.644m2.934-4.05a.91.91 0 1 0 0-1.82.91.91 0 0 0 0 1.82m-5.869-1.003a1.603 1.603 0 1 0 0-3.207 1.603 1.603 0 0 0 0 3.206m5.578-1.612a1.65 1.65 0 1 0 0-3.3 1.65 1.65 0 0 0 0 3.3m-5.297-7.387a1.322 1.322 0 1 0 0-2.644 1.322 1.322 0 0 0 0 2.643m3.497.498a1.181 1.181 0 1 0 0-2.363 1.181 1.181 0 0 0 0 2.362m4.997-7.584a1.181 1.181 0 1 0 0-2.363 1.181 1.181 0 0 0 0 2.363m-11.306-6.703a1.49 1.49 0 1 0 0-2.981 1.49 1.49 0 0 0 0 2.98m7.49 11.139a1.819 1.819 0 1 0 0-3.638 1.819 1.819 0 0 0 0 3.637m-4.771-5.624a1.79 1.79 0 1 0 0-3.582 1.79 1.79 0 0 0 0 3.582m6.093-2.645a1.322 1.322 0 1 0 0-2.643 1.322 1.322 0 0 0 0 2.644"/><path fill="#E0E0E0" d="m38.869 39.103-5.775-4.181s-2.344 2.7-10.444 4.106c-6.938 1.2-14.4 5.156-13.688 28.2.62 20.1 3.329 24.675 14.972 27.422 10.144 2.4 10.125 5.203 10.125 5.203l5.082-3.581V71.409zM26.24 84.413c-6.507 0-6.507-7.379-6.507-16.482s0-16.481 6.506-16.481 6.507 7.378 6.507 16.481-.403 16.481-6.506 16.481"/><path fill="#fff" d="M94.697 105.469c-.553 1.603-2.503 4.593-8.034 6.74-3.403 1.322-8.41 2.494-12.535 2.082-.88-.085-.609-.947-.009-1.06 3.44-.609 6.778-1.537 10.744-3.131 5.156-2.081 8.606-4.847 9.094-5.184.825-.582.834.281.74.553M52.66 47.719c-1.453-1.107-2.578-2.082-4.585-3.029-.956-.45-2.465-.524-3.825-.478l.207 25.95c.028.272.271.994 1.209 1.388.778.328 5.231 1.425 8.597 2.006.881.103 1.415-.31 1.434-.75l.103-23.522c-1.21-.431-2.418-1.022-3.14-1.565m-29.682-5.41c-2.887.488-4.8 1.585-6.712 3.807-1.303 1.518-3.056 4.846-2.925 7.903.01.234.131 1.518.666 1.462.825-.084 1.05-1.097 1.125-1.528.234-1.416 1.8-5.062 2.84-6.253 1.997-2.288 4.66-2.84 5.747-3.216.638-.225 2.297-1.031 2.175-1.612-.216-.947-2.316-.666-2.916-.563"/><path fill="#E9E2CF" d="M44.279 5.578c-1.032.769-1.988 1.669-3.226 2.044-2.071.628-4.284-.225-6.44.637-6.094 2.438-8.963 7.472-6.684 13.575.759 2.044-.038 3.02-.572 5.035-1.463 5.531 2.4 12.497 8.493 13.162 3.647.394 7.163-1.322 10.725-.947 3 .32 4.547 3.104 7.2 4.144 2.504.975 5.316 1.228 7.988 1.153 3.59-.112 8.287-2.897 11.569-.318 5.08 3.993 1.772 12.225 7.856 15.843 2.494 1.482 5.878 1.125 8.24-.365 4.538-2.86 3.441-8.775 4.763-13.172.337-1.172.816-2.24 1.856-2.963s2.194-.525 3.338-.965c1.537-.6 2.99-1.425 4.162-2.597 1.369-1.378.375-3.938 2.663-4.388.703-.14 1.622-.534 2.165-.947 2.954-2.23 3.6-6.721 1.472-9.73-.787-1.107-1.387-1.416-1.556-2.785-.159-1.238.122-2.316-.356-3.581-1.153-3.122-4.003-5.091-7.181-5.944a24 24 0 0 0-1.829-.403c-1.022-.188-1.875-.225-2.653-.975-.403-.385-.712-.947-1.003-1.416-.806-1.284-1.884-2.297-3.075-3.216-3.534-2.728-8.24-3.356-12.61-2.756-1.19.16-2.23.563-3.356.975-2.821 1.022-3.918-.834-6.178-2.025-2.812-1.481-6.178-1.519-9.262-1.069-1.81.263-3.15 1.332-4.772 2.016-1.884.797-2.944.216-4.828.084-1.678-.112-3.469.31-5.044.844-.684.225-1.294.619-1.865 1.05"/><mask id="a" width="85" height="60" x="27" y="1" maskUnits="userSpaceOnUse" style="mask-type:luminance"><path fill="#fff" d="M44.279 5.578c-1.032.769-1.988 1.669-3.226 2.044-2.071.628-4.284-.225-6.44.637-6.094 2.438-8.963 7.472-6.684 13.575.759 2.044-.038 3.02-.572 5.035-1.463 5.531 2.4 12.497 8.493 13.162 3.647.394 7.163-1.322 10.725-.947 3 .32 4.547 3.104 7.2 4.144 2.504.975 5.316 1.228 7.988 1.153 3.59-.112 8.287-2.897 11.569-.318 5.08 3.993 1.772 12.225 7.856 15.843 2.494 1.482 5.878 1.125 8.24-.365 4.538-2.86 3.441-8.775 4.763-13.172.337-1.172.816-2.24 1.856-2.963s2.194-.525 3.338-.965c1.537-.6 2.99-1.425 4.162-2.597 1.369-1.378.375-3.938 2.663-4.388.703-.14 1.622-.534 2.165-.947 2.954-2.23 3.6-6.721 1.472-9.73-.787-1.107-1.387-1.416-1.556-2.785-.159-1.238.122-2.316-.356-3.581-1.153-3.122-4.003-5.091-7.181-5.944a24 24 0 0 0-1.829-.403c-1.022-.188-1.875-.225-2.653-.975-.403-.385-.712-.947-1.003-1.416-.806-1.284-1.884-2.297-3.075-3.216-3.534-2.728-8.24-3.356-12.61-2.756-1.19.16-2.23.563-3.356.975-2.821 1.022-3.918-.834-6.178-2.025-2.812-1.481-6.178-1.519-9.262-1.069-1.81.263-3.15 1.332-4.772 2.016-1.884.797-2.944.216-4.828.084-1.678-.112-3.469.31-5.044.844-.684.225-1.294.619-1.865 1.05"/></mask><g mask="url(#a)"><path fill="#E2D2BA" d="M109.688 18.928c-.6 2.653-2.663 4.931-5.25 5.775s-5.597.244-7.65-1.547c-.919 1.257-3.413.038-4.135.525-.721.497-2.156 5.138-4.78 5.363-1.595 1.922-4.266 2.887-6.723 2.428s-4.284-4.913-5.38-4.706c-1.098.206-1.716 1.8-2.926 1.884-.6.047-1.228-.056-1.79.16-1.154.44-1.5 1.95-2.513 2.662-.966.684-2.297.487-3.422.872-.722.244-1.34.722-1.987 1.115-2.578 1.585-5.878 1.95-8.738.985-2.869-.975-5.26-3.263-6.347-6.094-1.668 1.903-5.981 3.29-7.303 2.906s-2.606 2.278-4.35 2.625c-1.856.366-3.76.74-5.625.413-1.865-.328-3.703-1.51-4.237-3.319a23.9 23.9 0 0 1-3.272 6.853l20.025 9.281c.91.422 1.847.863 2.55 1.566 1.65 1.65 1.753 4.378 3.356 6.066 1.706 1.8 4.5 1.865 6.975 1.81l7.134-.17c1.107-.028 2.27-.037 3.254.46 2.728 1.397 2.446 5.606 4.715 7.668 1.744 1.575 4.397 1.407 6.722 1.135 6.563-.769 13.125-1.603 19.669-2.494.61-.084 1.237-.169 1.781-.46.75-.402 1.247-1.124 1.744-1.818a70 70 0 0 1 14.006-14.738c1.359-1.059 2.794-2.118 3.628-3.628.75-1.35.938-2.934 1.106-4.472l.563-4.93c.075-.685.15-1.398-.038-2.063-.271-.92-1.021-1.613-1.706-2.288a24.4 24.4 0 0 1-4.378-5.99c-.544-1.05-1.022-2.166-1.847-3.02-.825-.852-2.1-1.387-3.206-.974"/></g><path fill="#F6EEDA" d="M79.285 42.46c1.884 1.65 2.165 4.509 2.315 7.04.16 2.634.966 7.425 2.747 7.125 1.21-.384 1.453-1.969 1.472-3.234.047-3.132.075-6.385-1.228-9.235-.572-1.247-1.435-2.428-2.672-3.01-1.125-.524-4.163-.655-2.635 1.313"/></svg>