<svg xmlns="http://www.w3.org/2000/svg" fill="none" aria-hidden="true" data-slot="icon" viewBox="0 0 120 120"><path fill="#78909C" d="M116.1 37.678H3.891a3.08 3.08 0 0 0-3.084 3.085v54.88a3.087 3.087 0 0 0 3.084 3.085H116.1a3.087 3.087 0 0 0 3.085-3.084V40.763a3.087 3.087 0 0 0-3.085-3.085"/><path fill="#B1E0CF" d="M116.1 21.272H3.891a3.08 3.08 0 0 0-3.084 3.084v54.882a3.087 3.087 0 0 0 3.084 3.084H116.1a3.087 3.087 0 0 0 3.085-3.084V24.356a3.087 3.087 0 0 0-3.085-3.084"/><path fill="#78909C" d="M22.96 68.766c.796.244 1.977.562 3.393.834v2.71c0 .393.328.721.722.721h5.775a.72.72 0 0 0 .722-.721v-2.25c5.128-.422 8.972-2.644 11.156-6.516 2.11-3.731 1.303-7.603-2.231-10.64-2.231-1.773-5.71-3.31-8.925-4.557v-5.934c2.147.693 4.078 1.387 5.644 2.053a.59.59 0 0 0 .712-.216l3.178-4.81.085-.459-.291-.375c-1.81-.975-5.512-2.475-9.319-3.44v-3.478a.72.72 0 0 0-.722-.722h-5.775a.72.72 0 0 0-.721.722v2.606c-5.354.253-9 2.11-11.091 5.7-1.64 2.822-1.64 6 0 8.297 1.725 2.447 4.528 3.544 8.072 4.922l.468.178c.816.31 1.688.637 2.55.947v7.218c-3.768-.9-7.284-2.718-7.921-3.15a.585.585 0 0 0-.788.122L13.8 63.544l-.113.431.226.385c2.325 1.734 5.709 3.384 9.046 4.406m3.393-27.375v4.369c-1.622-.525-2.644-1.06-2.54-2.325.112-1.304 1.359-1.829 2.54-2.044M36 60.28c-.375.975-1.331 1.472-2.428 1.725v-4.978c1.219.544 2.137 1.116 2.475 1.838.187.403.16.862-.047 1.415"/><path fill="#E0E0E0" d="M73.594 19.397h20.625v62.916H73.594z"/><path fill="#BDBDBD" d="M73.594 82.322h20.625v18.281H73.594z"/></svg>