<svg xmlns="http://www.w3.org/2000/svg" fill="none" aria-hidden="true" data-slot="icon" viewBox="0 0 120 120" width="1em" height="1em"><path fill="#FCC21B" d="M45.61 80.194 37.883 96.14 32.38 79.227 15 76.828l14.203-10.481-2.906-17.25 14.175 10.256 10.087-5.194 5.607-2.887-1.482 4.425-4.078 12.216 12.722 12.43z"/><path fill="#40C0E7" d="M78.994 29.213c-3.253 1.903-6.422 3.956-9.544 6.084 1.097.61 1.988 1.631 2.513 3.234.16.46.206.938.206 1.425 1.819-1.359 3.637-2.718 5.503-4.003a216 216 0 0 1 9.919-6.422 229 229 0 0 1 12.103-6.862q3.403-1.798 6.862-3.497c.591-.281 1.182-.572 1.772-.853.282-.131.553-.29.844-.403.356-.131 3.234-1.294 2.353-1.913-.412-.3-1.04-.14-1.5-.075-.572.094-1.125.263-1.659.413a73 73 0 0 0-3.085.918c-2.381.76-4.725 1.604-7.05 2.522a129 129 0 0 0-8.878 3.891 157 157 0 0 0-10.36 5.54"/><path fill="#F79329" d="m58.631 65.972 4.397-13.181 2.569-7.688 1.087-3.272a2.03 2.03 0 0 0-.59-2.156 2.01 2.01 0 0 0-2.222-.262l-.704.356-14.268 7.36-7.81 4.03-20.587-14.896a2.01 2.01 0 0 0-2.231-.075 2.02 2.02 0 0 0-.92 2.034l4.229 25.05L.956 78.488a1.99 1.99 0 0 0-.75 2.1 1.98 1.98 0 0 0 1.669 1.49l25.21 3.488 7.996 24.553a2.02 2.02 0 0 0 1.762 1.378 2.01 2.01 0 0 0 1.941-1.125l11.194-23.138 25.697.216c.825 0 1.556-.487 1.865-1.237.31-.75.132-1.622-.44-2.194zM45.609 80.194 37.893 96.14l-5.512-16.913L15 76.828l14.203-10.481-2.916-17.25 14.185 10.256 10.087-5.203 5.597-2.887-1.481 4.434-4.078 12.216 12.73 12.43z"/><path fill="#40C0E7" d="M38.54 41.166c.46.478.854.984 1.426 1.34.271.169.506.263.73.29.554.076.957-.271 1.52-.796a102 102 0 0 1 3.543-3.15 147 147 0 0 1 5.654-4.575q3.808-2.94 7.771-5.653a201 201 0 0 1 9.92-6.422 240 240 0 0 1 12.093-6.862 278 278 0 0 1 6.872-3.488c.581-.29 1.172-.572 1.762-.853.281-.14.553-.29.844-.403.356-.14 3.225-1.294 2.353-1.913-.412-.3-1.04-.14-1.5-.075-.572.094-1.116.253-1.669.413-1.04.281-2.062.59-3.084.918-2.372.75-4.725 1.604-7.05 2.513a138 138 0 0 0-8.878 3.89 155 155 0 0 0-10.369 5.532c-3.947 2.316-7.8 4.8-11.54 7.434a169 169 0 0 0-9.507 7.2c-.553.45-1.106.91-1.668 1.369-.507.422-1.172.9-.675 1.612.44.61.937 1.144 1.453 1.679m81.141-11.391c-.431-.281-1.05-.094-1.5 0-.562.113-1.097.31-1.64.497a83 83 0 0 0-3.038 1.069 111 111 0 0 0-6.919 2.868 129 129 0 0 0-8.662 4.332 151 151 0 0 0-10.088 6.037 167 167 0 0 0-11.156 7.997 174 174 0 0 0-9.131 7.66c-.544.477-1.069.965-1.603 1.453-.488.45-1.125.956-.59 1.64.45.581.984 1.097 1.518 1.594.487.46.89.937 1.49 1.266.272.159.516.234.732.262.553.047.947-.328 1.481-.872a103 103 0 0 1 3.384-3.328 139 139 0 0 1 5.42-4.847 191 191 0 0 1 7.48-6.037 208 208 0 0 1 9.591-6.9 221 221 0 0 1 11.747-7.453 246 246 0 0 1 6.684-3.825c.572-.31 1.153-.629 1.725-.938.263-.15.544-.319.816-.44.347-.16 3.169-1.454 2.259-2.035"/></svg>