<svg width="120" height="120" viewBox="0 0 120 120" fill="none" xmlns="http://www.w3.org/2000/svg">
<path d="M117.9 60.8532C120.075 63.6563 119.813 67.0501 117.263 68.3813L40.0034 108.834C36.6097 110.597 32.1472 109.144 30.1222 105.6L1.36906 55.3782C-0.309069 52.4438 0.994055 49.0032 4.20968 47.7188L78.7316 18.0282C81.2253 17.0438 84.7409 18.1688 86.5972 20.5594L117.9 60.8532Z" fill="#FCC21B"/>
<mask id="mask0_212_421" style="mask-type:luminance" maskUnits="userSpaceOnUse" x="0" y="17" width="120" height="93">
<path d="M117.9 60.8532C120.075 63.6563 119.813 67.0501 117.263 68.3813L40.0034 108.834C36.6097 110.597 32.1472 109.144 30.1222 105.6L1.36906 55.3782C-0.309069 52.4438 0.994055 49.0032 4.20968 47.7188L78.7316 18.0282C81.2253 17.0438 84.7409 18.1688 86.5972 20.5594L117.9 60.8532Z" fill="white"/>
</mask>
<g mask="url(#mask0_212_421)">
<path d="M100.181 33.5814L7.90332 74.447L-0.0185547 60.422L91.4346 22.4158L100.181 33.5814Z" fill="#2F2F2F"/>
</g>
<path d="M111.806 60.5812C112.875 61.9874 112.725 63.6749 111.431 64.3218L101.034 69.628C99.6936 70.3124 97.7154 69.6749 96.6467 68.2124L90.5436 59.8406C89.5217 58.4249 89.7748 56.7562 91.1061 56.1187L101.447 51.1968C102.722 50.5874 104.597 51.1968 105.647 52.5468L111.806 60.5812Z" fill="white"/>
</svg>
