<svg xmlns="http://www.w3.org/2000/svg" fill="none" aria-hidden="true" data-slot="icon" viewBox="0 0 120 120"><path fill="#ED6C30" d="M113.269 68.419c-2.906-1.013-5.934-1.603-8.887-2.475-1.154-.347-2.532-.61-3.404-1.5-2.24-2.306 2.344-3.957 3.985-4.51 1.031-.346 1.978-.759 2.972-1.2.975-.44 10.322-2.878 6.843-5.006-.74-.45-1.65-.516-2.456-.769-1.969-.609-3.984-1.04-5.981-1.565-1.884-.497-4.284-.085-5.906-1.369-3.216-2.531 1.575-6.084 3.543-7.322 1.135-.712 3.235-1.66 3.244-3.262.01-2.4-3.3-1.81-4.762-1.913-2.025-.15-4.06-.272-6.085-.44-.937-.075-2.222-.263-2.962-.891-.947-.797.094-2.606.44-3.506 1.041-2.766 2.288-5.447 3.6-8.091 1.575-3.178 3.263-6.3 4.847-9.478a118 118 0 0 0 2.288-4.8c.525-1.172 1.772-3.675.075-4.425-1.406-.61-2.897.562-3.947 1.35-.469.347-.919.694-1.378 1.05-2.869 2.222-5.625 4.584-8.353 6.975-2.719 2.39-5.41 4.819-8.147 7.19-.694.6-1.425 1.182-2.24 1.622-1.107.6-2.485.891-3.291-.318-.825-1.238-.863-2.991-.9-4.425-.047-1.913.075-3.825.178-5.728.075-1.407.394-2.991-.094-4.35-.787-2.213-3.253-1.341-4.294.046-1.097 1.454-1.66 3.254-2.484 4.857-1.134 2.23-2.344 4.453-3.844 6.468-1.219 1.641-2.747 3.404-4.762 4.05-2.091.675-4.013-.393-5.428-1.912-1.52-1.631-2.991-3.3-4.435-4.997-2.419-2.84-4.753-5.756-7.097-8.672a376 376 0 0 0-3.515-4.35c-.77-.937-2.016-2.615-3.394-2.512-2.55.206-.769 6.15-.581 7.509.43 3.103.675 6.225 1.33 9.29.441 2.082.957 4.135 1.323 6.235.225 1.313.46 3.778-.703 4.772-1.575 1.331-3.722-.722-4.988-1.49-.825-.498-1.537-1.163-2.362-1.67-3.516-2.165-3.535 1.482-3.254 4.041.17 1.585.404 2.86-1.612 2.775-1.64-.075-3.281-1.012-4.81-1.547a413 413 0 0 1-5.718-2.015c-3.713-1.332-7.425-2.672-11.175-3.92-.994-.327-2.475.245-2.794 1.295-.637 2.09 3.46 6.075 4.622 7.556 3.61 4.584 8.24 8.137 11.916 12.637 1.593 1.97 3.543 4.97 2.343 7.575-1.218 2.672-4.996 3.975-7.453 5.279-1.481.787-5.719 2.793-4.06 5.071.3.413 1.004.704 1.463.9a10.8 10.8 0 0 0 2.335.703c2.69.516 5.428.685 8.147 1.004 2.165.253 4.772 1.284 4.33 3.843-.524 3.075-3.346 5.935-5.352 8.138-3.047 3.337-6.253 6.534-9.394 9.778-1.106 1.144-8.166 6.994-5.84 8.737 1.359 1.022 4.593-.356 6.046-.703 5.419-1.303 10.828-2.672 16.2-4.162 1.453-.403 2.907-.825 4.34-1.266 3.976-1.228 8.982-2.372 9.638 3.16.366 2.98.329 5.99.61 8.981.365 3.75.15 7.659 1.144 11.297.571 2.109 2.821 2.109 4.106.825 1.603-1.603 2.447-4.078 3.469-6.075 1.237-2.438 2.371-4.913 3.562-7.369 1.331-2.766 2.831-6.712 5.86-8.016 3.056-1.312 5.1 1.482 6.89 3.478 1.725 1.932 3.29 4.013 5.138 5.851 1.087 1.087 2.1 2.39 3.496 3.103.591.3 1.303.515 1.828.009 1.491-1.453 1.032-3.562 1.397-5.409.591-2.982 1.2-6.553 3.235-8.935 2.062-2.4 5.09-1.256 7.612-.422a457 457 0 0 1 10.95 3.77c2.044.73 4.097 1.452 6.122 2.23 1.35.516 2.784.816 4.153 1.238.76.234 1.491.553 2.26.759 2.128.582 4.884-.122 2.962-2.644-1.509-1.987-3.741-3.487-5.541-5.203-2.1-1.987-4.171-4.021-6.328-5.934-2.559-2.269-5.456-4.294-7.18-7.322-.638-1.106-1.623-2.662-.845-3.937.825-1.37 3.188-1.453 4.575-1.782 3.535-.834 7.182-.656 10.782-.796 1.8-.066 4.387.075 5.971-.844 2.85-1.66-2.971-3.788-4.134-4.2"/><path fill="#FCC21B" d="M82.838 63.488c-3.253.468-7.322 2.25-5.934 6.178.965 2.728 3.412 4.706 5.203 6.872.572.693 1.518 1.387 1.246 2.38-.196.732-.862.713-1.5.554-2.184-.553-4.274-1.781-6.253-2.812-2.793-1.454-5.98-2.494-8.934-.863-2.878 1.584-4.219 4.819-6.028 7.378-1.078 1.538-2.766.825-3.244-.712-.797-2.494-.75-5.438-3.375-6.816-2.86-1.51-6.403-.16-9.234.619-1.472.403-3.956 1.397-5.419.618-1.763-.928.675-3.543 1.256-4.228 2.025-2.4 4.125-4.968 5.203-7.95 1.407-3.918-1.697-6.675-4.434-8.915-.834-.685-5.775-4.5-3.394-5.653 1.51-.732 3.844.14 5.372.459 1.988.403 4.106.778 6.075.047 3.994-1.472 3.76-6.188 4.575-9.6.206-.872.31-2.334 1.163-2.822 1.05-.61 1.95.356 2.418 1.256.591 1.163.91 2.438 1.463 3.61.881 1.893 1.997 3.778 3.881 4.818 3.947 2.175 8.625-.6 11.972-2.672.844-.525 1.781-1.565 2.766-1.743 1.003-.178 1.078.975.825 1.687-.254.685-.544 1.388-.807 2.072-.965 2.531-2.09 5.55-.665 8.128 1.153 2.081 3.394 3.169 5.54 3.938.713.253 2.71.562 4.078 1.172.479.215 1.388.797 1.36 1.425-.028 1.387-4.181 1.434-5.175 1.575"/></svg>