<svg xmlns="http://www.w3.org/2000/svg" fill="none" aria-hidden="true" data-slot="icon" viewBox="0 0 120 120" width="1em" height="1em"><path fill="#424242" d="M0 19.688h120v80.624H0z"/><path fill="#858A93" d="M0 83.438h15a1.88 1.88 0 0 0 1.875-1.875V38.438A1.88 1.88 0 0 0 15 36.563H0zm105 0h15V36.563h-15a1.88 1.88 0 0 0-1.875 1.875v43.125A1.88 1.88 0 0 0 105 83.438m-78.787 0h67.565a1.8 1.8 0 0 0 1.8-1.8V38.363a1.8 1.8 0 0 0-1.8-1.8H26.213a1.8 1.8 0 0 0-1.8 1.8v43.265c0 1.003.806 1.81 1.8 1.81m-19.65-51.62H.938A.94.94 0 0 1 0 30.882v-5.625a.94.94 0 0 1 .938-.937h5.625a.94.94 0 0 1 .937.937v5.625a.94.94 0 0 1-.937.938m16.068 0h-5.625a.94.94 0 0 1-.937-.937v-5.625a.94.94 0 0 1 .937-.937h5.625a.94.94 0 0 1 .938.937v5.625a.94.94 0 0 1-.938.938m16.078 0h-5.625a.94.94 0 0 1-.937-.937v-5.625a.94.94 0 0 1 .937-.937h5.625a.94.94 0 0 1 .938.937v5.625a.94.94 0 0 1-.938.938m32.138 0h-5.625a.94.94 0 0 1-.938-.937V25.26a.94.94 0 0 1 .938-.937h5.625a.94.94 0 0 1 .937.937v5.625a.94.94 0 0 1-.937.938m-16.069 0h-5.625a.94.94 0 0 1-.937-.937v-5.625a.94.94 0 0 1 .937-.937h5.625a.94.94 0 0 1 .938.937v5.625a.94.94 0 0 1-.938.938m32.138 0H81.29a.94.94 0 0 1-.938-.937v-5.625a.94.94 0 0 1 .938-.937h5.625a.94.94 0 0 1 .937.937v5.625a.94.94 0 0 1-.937.938m16.078 0h-5.625a.94.94 0 0 1-.938-.937v-5.625a.94.94 0 0 1 .938-.937h5.625a.94.94 0 0 1 .937.937v5.625a.94.94 0 0 1-.937.938m16.068 0h-5.624a.94.94 0 0 1-.938-.937v-5.625a.94.94 0 0 1 .938-.937h5.624a.94.94 0 0 1 .938.937v5.625a.94.94 0 0 1-.938.938M6.562 95.626H.939A.94.94 0 0 1 0 94.688v-5.625a.94.94 0 0 1 .938-.938h5.625a.94.94 0 0 1 .937.938v5.625a.94.94 0 0 1-.937.937m16.07 0h-5.626a.94.94 0 0 1-.937-.937v-5.625a.94.94 0 0 1 .937-.938h5.625a.94.94 0 0 1 .938.938v5.625a.94.94 0 0 1-.938.937m16.077 0h-5.625a.94.94 0 0 1-.937-.937v-5.625a.94.94 0 0 1 .937-.938h5.625a.94.94 0 0 1 .938.938v5.625a.94.94 0 0 1-.938.937m32.138 0h-5.625a.94.94 0 0 1-.938-.937v-5.625a.94.94 0 0 1 .938-.938h5.625a.94.94 0 0 1 .937.938v5.625a.94.94 0 0 1-.937.937m-16.069 0h-5.625a.94.94 0 0 1-.937-.937v-5.625a.94.94 0 0 1 .937-.938h5.625a.94.94 0 0 1 .938.938v5.625a.94.94 0 0 1-.938.937m32.138 0H81.29a.94.94 0 0 1-.938-.937v-5.625a.94.94 0 0 1 .938-.938h5.625a.94.94 0 0 1 .937.938v5.625a.94.94 0 0 1-.937.937m16.078 0h-5.625a.94.94 0 0 1-.938-.937v-5.625a.94.94 0 0 1 .938-.938h5.625a.94.94 0 0 1 .937.938v5.625a.94.94 0 0 1-.937.937m16.068 0h-5.624a.94.94 0 0 1-.938-.937v-5.625a.94.94 0 0 1 .938-.938h5.624a.94.94 0 0 1 .938.938v5.625a.94.94 0 0 1-.938.937"/></svg>