<svg xmlns="http://www.w3.org/2000/svg" fill="none" aria-hidden="true" data-slot="icon" viewBox="0 0 120 120" width="1em" height="1em"><path fill="#ED6C30" d="M92.428 47.963c-3.966.862-7.388 3.075-8.99 6.89-.966 2.316-2.316 8.297-6.02 6.75-1.771-.731-1.743-3.272-1.537-4.856.44-3.253 1.903-6.225 2.906-9.319 1.031-3.206 1.922-6.431 2.56-9.75 2.137-10.987 1.546-23.644-6.225-32.428C73.809 3.75 70.5.281 68.315.206c-1.35-.037-.018 1.556.357 2.09a17.3 17.3 0 0 1 1.884 3.535c5.747 14.663-8.419 25.828-17.728 34.519-4.463 4.172-8.025 8.597-11.231 13.762-.32.497-1.022 2.166-1.932 1.82-1.078-.413-1.19-2.879-1.528-3.798-.637-1.762-1.622-3.684-2.887-5.062-2.447-2.681-5.87-4.49-9.572-4.247-.14.01-.544.075-1.04.188-.779.168-2.86.44-2.298 1.696.29.647 1.144.591 1.753.77 7.82 2.4 7.641 10.593 6.375 17.174-2.287 11.981-8.625 23.306-4.125 35.625 5.307 14.522 21.92 23.588 36.994 21.094 4.116-.675 8.86-2.006 12.553-3.994 3.928-2.119 8.232-5.016 11.297-8.278 3.947-4.191 6.46-9.562 7.2-15.253.872-6.581-1.228-12.788-3.14-19.003-2.307-7.5-4.96-19.744 4.621-23.41.47-.187 1.407-.328 1.735-.825 1.219-1.818-4.631-.759-5.175-.647"/><path fill="#FCC21B" d="M63.872 99.44c1.988 1.669 4.772.854 6.647-.571 1.003-.76 1.866-1.734 2.428-2.869.235-.487.507-1.106.507-1.66 0-.74-.441-1.471-.254-2.23 1.575-.31 3.525 4.218 3.722 5.268 1.575 8.278-6.225 15.103-13.753 16.425-12.703 2.222-20.006-8.906-18.544-18.787.91-6.15 5.035-10.378 9.235-14.597 3.478-3.497 6.703-6.497 7.828-11.044.197-.806.15-2.044-.084-2.84-.197-.685-.572-1.313-.591-2.054-.056-1.556 1.453.479 1.8.872 4.181 4.716 5.372 11.682 4.256 17.775-.722 3.938-3.534 6.75-4.519 10.519-.571 2.147-.515 4.237 1.322 5.794"/></svg>