<svg width="120" height="120" viewBox="0 0 120 120" fill="none" xmlns="http://www.w3.org/2000/svg">
<path d="M113.156 16.5H79.9688C77.7188 16.5 75.9375 18.2812 75.9375 20.5312V33.0938H117.188V20.5312C117.188 18.2812 115.406 16.5 113.156 16.5Z" fill="#A13300"/>
<path d="M113.531 95.9062H18.6562C16.6875 95.9062 15 94.3125 15 92.25V29.7188C15 27.75 16.5937 26.0625 18.6562 26.0625H117.188V92.3438C117.188 94.3125 115.594 95.9062 113.531 95.9062Z" fill="#CCB656"/>
<path d="M78 23.7188H44.7187C42.4687 23.7188 40.6875 25.5 40.6875 27.75V40.3125H81.9375V27.75C82.0312 25.5 80.1562 23.7188 78 23.7188Z" fill="#1A6CA2"/>
<path d="M107.906 104.062H13.0312C11.0625 104.062 9.375 102.469 9.375 100.406V37.7812C9.375 35.8125 10.9687 34.125 13.0312 34.125H107.906C109.875 34.125 111.562 35.7187 111.562 37.7812V100.406C111.562 102.375 109.969 104.062 107.906 104.062Z" fill="#E5D07A"/>
<path d="M40.125 32.1562H6.75C4.59375 32.1562 2.8125 33.9375 2.8125 36.0938V48.4688H44.0625V36.0938C44.0625 33.9375 42.2812 32.1562 40.125 32.1562Z" fill="#F79329"/>
<path d="M101.344 112.5H6.46875C4.5 112.5 2.8125 110.906 2.8125 108.844V42.6562H101.344C103.312 42.6562 105 44.25 105 46.3125V108.938C105 110.906 103.406 112.5 101.344 112.5Z" fill="#F7E599"/>
</svg>
