<svg xmlns="http://www.w3.org/2000/svg" fill="none" aria-hidden="true" data-slot="icon" viewBox="0 0 120 120" width="1em" height="1em"><path fill="#A13300" d="M113.156 16.5H79.969a4 4 0 0 0-4.031 4.031v12.563h41.25V20.53a4 4 0 0 0-4.032-4.031"/><path fill="#CCB656" d="M113.531 95.906H18.656c-1.968 0-3.656-1.594-3.656-3.656V29.719c0-1.969 1.594-3.657 3.656-3.657h98.532v66.282c0 1.969-1.594 3.562-3.657 3.562"/><path fill="#1A6CA2" d="M78 23.719H44.719a4 4 0 0 0-4.032 4.031v12.563h41.25V27.75c.094-2.25-1.78-4.031-3.937-4.031"/><path fill="#E5D07A" d="M107.906 104.062H13.031c-1.969 0-3.656-1.593-3.656-3.656V37.781c0-1.968 1.594-3.656 3.656-3.656h94.875c1.969 0 3.656 1.594 3.656 3.656v62.625c0 1.969-1.593 3.656-3.656 3.656"/><path fill="#F79329" d="M40.125 32.156H6.75c-2.156 0-3.937 1.782-3.937 3.938v12.375h41.25V36.094c0-2.157-1.782-3.938-3.938-3.938"/><path fill="#F7E599" d="M101.344 112.5H6.469c-1.969 0-3.657-1.594-3.657-3.656V42.656h98.532c1.968 0 3.656 1.594 3.656 3.657v62.625c0 1.968-1.594 3.562-3.656 3.562"/></svg>