<svg xmlns="http://www.w3.org/2000/svg" fill="none" aria-hidden="true" data-slot="icon" viewBox="0 0 120 120"><path fill="#2F2F2F" d="M16.322 43.81h85.838v37.996H16.322z"/><path fill="#006CA2" d="M16.322 61.5c9.15 3.994 18.43 8.1 27.478 12.394 5.625 2.672 10.865 3.975 16.022 3.975 3.759 0 7.509-.713 11.156-2.128 2.869-1.107 5.634-2.447 8.316-3.741 1.753-.844 3.403-1.65 5.1-2.39 1.884-.835 3.768-1.679 5.653-2.513a2241 2241 0 0 0 9.778-4.444c.778-.356 1.556-.703 2.344-1.06v14.654c0 3.272.075 6.553 0 9.825-.254 10.856-13.05 12.684-23.925 13.79-16.407 1.669-36.497 2.597-52.172-2.23-4.22-1.304-6.778-3.61-8.297-6.45-3.516-6.573-1.444-16.013-1.444-22.445-.01-2.409-.01-4.818-.01-7.237"/><path fill="#006CA2" d="M.553 44.137a8.6 8.6 0 0 1 .77-1.406c1.058-1.556 2.643-2.784 4.246-3.74.722-.432 1.462-.9 2.222-1.238 4.387-1.96 8.84-4.163 13.219-6.281 10.18-4.894 20.297-9.957 30.975-13.66a19.3 19.3 0 0 1 6.375-1.068c5.493 0 10.78 2.212 16.03 4.593 8.738 3.966 17.485 7.922 26.213 11.878 4.547 2.063 9.338 3.844 13.753 6.225 2.391 1.294 6.01 3.46 5.41 7.013-.403 2.447-3.028 3.478-5.035 4.378-3.028 1.35-6.065 2.681-9.084 4.04-1.162.526-2.325 1.05-3.487 1.585-4.678 2.128-9.347 4.266-14.035 6.366q-2.812 1.265-5.625 2.503c-4.406 1.94-8.728 4.322-13.21 6.066-3.205 1.237-6.355 1.8-9.468 1.8-4.716 0-9.356-1.304-14.016-3.526-9.75-4.63-19.593-8.971-29.484-13.265-2.54-1.116-5.09-2.213-7.631-3.31C5.269 51.61-1.49 49.134.553 44.138"/><path fill="#ED6C30" d="M117.9 98.26s-.075 2.231.337 5.128c0 0-7.256 1.396-12.609-3.15 0 0 .066-2.044.375-2.907z"/><path fill="#F79329" d="M117.89 96.806a19 19 0 0 0-.159-1.903c-.225-1.622-.797-3.01-1.95-4.181a3.2 3.2 0 0 0-1.069-.694V51.581h-4.847v4.828c-.019.507-.009.994 0 1.453v4.557h.028c0 .487 0 .975.01 1.462.037 4.135-.038 8.26-.085 12.394-.018.844-.028 1.697-.028 2.55v11.11c-.74.271-1.378.759-1.894 1.584-.609.994-.975 2.128-1.293 3.244-.16.553-.61 2.559-.61 2.559s-.084.76.685 1.115c1.097.507 3.656 1.332 8.165.882a8.5 8.5 0 0 0 1.744-.356c.431-.132 1.106-.272 1.313-.713.14-.29 0-1.162-.01-1.444m-14.428 11.728c.666-1.378 1.125-2.85 1.472-4.331.178-.74.694-3.965.694-3.965s1.584 1.396 6.215 1.678c3.807.234 6.169-.507 6.169-.507s.694 2.944.731 6.704c.028 2.296-.3 4.509-1.172 6.628-.271.665-.581 1.368-1.125 1.856-.412.384-1.34.572-1.846.234-.347-.243-.188-.497-.254-.834-.14-.825-.768.019-1.003.328-.403.544-.497.984-1.2 1.2-1.022.3-2.775.6-3.403-.544-.225-.403.113-.712-.469-.722-.281 0-.646.497-.834.675-.384.366-.806.469-1.331.413-.853-.066-2.091-.506-2.288-1.463-.084-.328.45-1.04-.243-1.003-.657.028-1.004.835-1.8.769-.685-.047-1.2-.544-1.416-1.181-.375-1.144.562-2.428 1.275-3.244.741-.853 1.341-1.678 1.828-2.691"/><path fill="#F79329" d="M112.622 53.616c-.15 0-.3-.02-.45-.047l-53.138-11.56a2.125 2.125 0 0 1-1.622-2.53 2.124 2.124 0 0 1 2.532-1.623l53.137 11.56a2.125 2.125 0 0 1 1.622 2.53 2.14 2.14 0 0 1-2.081 1.67"/></svg>