<svg xmlns="http://www.w3.org/2000/svg" fill="none" aria-hidden="true" data-slot="icon" viewBox="0 0 120 120"><g clip-path="url(#a)"><path fill="#006CA2" d="M36.994 95.831h44.972V120H36.994z"/><path fill="#006CA2" d="M75.769 41.963V9.075h-31.37v32.888H9.488v56.662h99.169V41.963z"/><path fill="#40C0E7" d="M106.697 34.594H89.86c-1.904 0-3.6-.244-4.679-1.125-1.05-.863-1.35-2.54-1.378-3.863v-17.25c0-5.109-4.18-9.28-9.28-9.28H45.468c-5.11 0-9.29 4.171-9.29 9.28v17.25c-.02 1.322-.329 3-1.37 3.863-1.078.89-2.774 1.125-4.678 1.125H13.303c-5.118 0-9.29 4.172-9.29 9.29V120h40.425v-12.169c0-2.85 2.315-5.184 5.175-5.184h20.765c2.85 0 5.185 2.334 5.185 5.184V120h40.434V43.885c-.009-5.12-4.191-9.291-9.3-9.291M27.075 89.175h-11.55V74.456h11.55zm0-23.39h-11.55v-14.72h11.55zm19.35 23.39h-11.55V74.456h11.55zm0-23.39h-11.55v-14.72h11.55zm19.34 23.39H54.207V74.456h11.56zm0-23.39H54.207v-14.72h11.56zm19.341 23.39h-11.54V74.456h11.54zm0-23.39h-11.54v-14.72h11.54zm19.35 23.39h-11.55V74.456h11.55zm0-23.39h-11.55v-14.72h11.55z"/><path fill="#ED6C30" d="M70.303 25.5c0 1.05-.853 1.913-1.903 1.913h-3.113a1.92 1.92 0 0 0-1.912 1.912v3.113a1.92 1.92 0 0 1-1.913 1.912h-2.925a1.92 1.92 0 0 1-1.912-1.912v-3.113a1.92 1.92 0 0 0-1.913-1.912H51.6a1.92 1.92 0 0 1-1.913-1.913v-2.925a1.92 1.92 0 0 1 1.913-1.912h3.112a1.92 1.92 0 0 0 1.913-1.913v-3.112a1.92 1.92 0 0 1 1.913-1.913h2.925a1.92 1.92 0 0 1 1.912 1.913v3.112a1.92 1.92 0 0 0 1.912 1.913H68.4c1.05 0 1.903.862 1.903 1.912z"/></g><defs><clipPath id="a"><path fill="#fff" d="M0 0h120v120H0z"/></clipPath></defs></svg>