<svg xmlns="http://www.w3.org/2000/svg" fill="none" aria-hidden="true" data-slot="icon" viewBox="0 0 120 120"><path fill="#FBC21A" d="M97.529 92.532a13.63 13.63 0 0 0 9.449-3.994c.769-.769 1.744-1.744 2.41-3.281 2.578-5.991-2.775-13.154-4.06-14.87-2.681-3.59-5.68-5.7-6.853-6.459-.168-.112-.309-.197-.365-.234-5.138-3.225-19.35-11.25-24.985-14.869-10.218-6.562-17.296-14.71-21-18.965-6.047-6.957-8.475-11.475-14.353-12.666-4.49-.91-10.143.3-13.434 4.05-5.54 6.319-2.569 17.325-.863 19.19.432.479 10.922 11.888 30.394 26.55C73.21 81.545 90.3 90.592 91.022 90.967a13.6 13.6 0 0 0 6.506 1.566"/><path fill="#ED6C30" d="M103.81 100.894c6.975 0 12.909-5.335 13.537-12.413.656-7.481-4.884-14.081-12.365-14.737-.179-.02-24.525-2.56-44.204-20.335-20.521-18.534-27.3-34.668-27.365-34.828-2.747-6.994-10.622-10.387-17.616-7.64-6.984 2.746-10.406 10.687-7.66 17.68.348.882 8.766 21.816 34.416 44.982 26.654 24.066 58.707 27.122 60.066 27.244.394.037.797.047 1.191.047"/><path fill="#FBC21A" d="M71.335 108.722C52.81 108.3 38.457 97.753 33.207 93.787c-2.222-1.678-11.082-8.559-19.107-20.4C5.382 60.516 3.882 50.981 3.572 48.778c-.684-4.894-1.96-13.969 3.235-17.972 2.934-2.26 6.6-1.894 7.18-1.828 5.991.694 9.648 7.106 11.438 9.6.056.075.3.534.74 1.303l.01.01.694 1.18c6.506 10.848 17.822 20.663 17.822 20.663 4.265 3.703 9.337 8.1 17.165 11.982 4.622 2.287 6.291 2.465 18.62 7.93 7.03 3.123 11.446 5.26 12.956 9.741.75 2.232.553 4.341.243 5.813-.75 1.753-2.09 4.294-4.49 6.487-1.444 1.322-6.225 5.297-17.85 5.035"/><path fill="#FFE266" d="M102.666 89.24a2.427 2.427 0 0 0 2.128-3.58 33.5 33.5 0 0 0-4.359-6.282c-1.247-1.425-4.594-4.95-8.644-7.031-5.175-2.662-9.375-1.866-12.75-1.237-2.99.562-4.631.796-6.44-.413-1.988-1.322-2.475-2.831-3.207-5.119-.825-2.578-1.856-5.784-5.362-9.169-4.34-4.19-8.916-4.874-12.581-5.418-3.31-.497-5.925-.882-8.11-3.46-2.062-2.437-2.044-4.762-2.006-7.706.037-3.328.075-7.481-3.497-11.719-2.55-3.018-5.784-4.734-8.39-6.103-3.066-1.612-4.81-2.606-5.063-4.369-.113-.75.028-1.575.422-2.446a2.44 2.44 0 0 0-1.247-3.207 2.44 2.44 0 0 0-3.206 1.247c-.76 1.725-1.022 3.45-.778 5.11.628 4.293 4.171 6.159 7.603 7.968 2.465 1.294 5.006 2.644 6.947 4.941 2.409 2.86 2.38 5.494 2.353 8.531-.038 3.319-.075 7.088 3.159 10.903 3.366 3.975 7.481 4.594 11.11 5.129 3.45.515 6.703.993 9.928 4.106 2.634 2.54 3.346 4.781 4.106 7.162.815 2.54 1.734 5.428 5.137 7.688 3.544 2.353 6.985 1.706 10.032 1.134s5.934-1.116 9.637.788c3.403 1.743 6.384 4.968 7.219 5.915 1.444 1.64 2.7 3.45 3.731 5.372a2.41 2.41 0 0 0 2.128 1.266"/></svg>