<svg xmlns="http://www.w3.org/2000/svg" fill="none" aria-hidden="true" data-slot="icon" viewBox="0 0 120 120" width="1em" height="1em"><path fill="#64878E" d="M13.481 51.188v39.14H106.2l-.253-39.14z"/><path fill="#8AB1B7" d="M12.628 35.072h94.256v9.553H12.628z"/><path fill="#EEE" d="M10.537 32.335h98.138v2.737H10.537z"/><path fill="#BCD2D3" d="M11.138 44.616h97.153v6.562H11.138zm-.075 45.712h97.481c1.172 0 2.119.947 2.119 2.119v3.563H8.944v-3.563c0-1.163.947-2.119 2.119-2.119m90.666-36.31v-2.83H90.891v2.83h1.94l-1.106 36.31h10.004l-1.529-36.31zm-50.41 0h1.744v-2.83H42.216v2.83h1.734l-1.322 36.31h10.013zm-24.337 0h1.743v-2.83H17.878v2.83h1.744L18.3 90.329h10.003zm50.418-2.83H66.544v1.021h.01v1.81h1.734l-1.322 36.31h10.013l-1.322-36.31h1.734v-1.81h.01zM7.557 30.872 58.8 6.478a1.87 1.87 0 0 1 1.613 0l51.244 24.394v4.34H7.557z"/><path fill="#8AB1B7" d="m59.204 14.55-23.12 11.034c-.73.347-.477 1.444.329 1.444h46.012c.807 0 1.06-1.087.329-1.444L59.86 14.55a.8.8 0 0 0-.657 0M7.529 95.588h104.756c1.144 0 2.081.928 2.081 2.08v4.501H5.447v-4.5c0-1.144.928-2.081 2.082-2.081"/><path fill="#BCD2D3" d="M4.968 102.178h109.875a1.78 1.78 0 0 1 1.782 1.781v10.004H3.178v-10.004c0-.984.806-1.781 1.79-1.781"/></svg>