<svg xmlns="http://www.w3.org/2000/svg" fill="none" aria-hidden="true" data-slot="icon" viewBox="0 0 120 120"><g clip-path="url(#a)"><path fill="#78909C" d="M273.919 252.403h-109.8c-1.613 0-6.441-4.162-6.441-5.784l3.516-74.531a2.93 2.93 0 0 1 2.925-2.925l107.991-2.982c1.612 0 4.734 4.285 4.734 5.907v77.39a2.923 2.923 0 0 1-2.925 2.925M98.869 117.338H23.616a2.637 2.637 0 0 1-2.635-2.635v-96.91a2.637 2.637 0 0 1 2.635-2.634h75.253a2.637 2.637 0 0 1 2.634 2.635v96.919a2.63 2.63 0 0 1-2.634 2.625"/><path fill="#E0E0E0" d="M96.385 114.863H21.13a2.637 2.637 0 0 1-2.634-2.635V15.309a2.637 2.637 0 0 1 2.634-2.634h75.254a2.637 2.637 0 0 1 2.634 2.634v96.919a2.637 2.637 0 0 1-2.634 2.635"/><path fill="#616161" d="M87.59 43.753H29.936a2.344 2.344 0 0 1 0-4.687H87.59a2.344 2.344 0 1 1 0 4.687m0 12.872H29.936a2.344 2.344 0 0 1 0-4.687H87.59a2.344 2.344 0 1 1 0 4.687m0 12.872H29.936a2.344 2.344 0 1 1 0-4.688H87.59a2.344 2.344 0 0 1 0 4.688m0 12.881H29.936a2.344 2.344 0 0 1 0-4.687H87.59a2.344 2.344 0 1 1 0 4.687m-33 12.872H29.936a2.344 2.344 0 0 1 0-4.687H54.59a2.344 2.344 0 1 1 0 4.687"/><path fill="#B0BEC5" d="m99.019 88.51-11.56 14.456-14.878 11.896h23.803c1.472 0 2.635-1.134 2.635-2.634z"/><path fill="#78A3AD" d="M72.581 114.862c.75-4.096 1.013-8.887.338-14.99-.15-1.397.88-2.635 2.287-2.7 3.244-.16 8.813-.572 12.76-1.622 5.653-1.5 11.053-7.04 11.053-7.04s-3.291 8.746-11.963 17.118c-6.112 5.897-14.475 9.234-14.475 9.234"/><path fill="#616161" d="M35.765 23.475c-4.762 0-8.494-4.575-8.494-10.406s3.732-10.406 8.494-10.406c4.763 0 8.494 4.575 8.494 10.406 0 .534-.028 1.06-.094 1.575a2.807 2.807 0 0 1-3.131 2.447 2.82 2.82 0 0 1-2.447-3.14c.038-.282.056-.582.056-.892 0-2.737-1.518-4.78-2.868-4.78s-2.87 2.043-2.87 4.78 1.52 4.782 2.87 4.782a2.81 2.81 0 0 1 2.812 2.812 2.825 2.825 0 0 1-2.822 2.822"/><path fill="#E0E0E0" d="M37.781 12.731h7.35v5.7h-7.35z"/><path fill="#616161" d="M58.556 23.475c-4.762 0-8.493-4.575-8.493-10.406s3.73-10.406 8.493-10.406 8.494 4.575 8.494 10.406c0 .525-.028 1.05-.094 1.565a2.83 2.83 0 0 1-3.131 2.457 2.806 2.806 0 0 1-2.456-3.132c.037-.29.056-.59.056-.89 0-2.738-1.519-4.781-2.869-4.781s-2.868 2.043-2.868 4.78 1.518 4.782 2.868 4.782a2.81 2.81 0 0 1 2.813 2.813 2.81 2.81 0 0 1-2.813 2.812"/><path fill="#E0E0E0" d="M60.572 12.731h7.35v5.7h-7.35z"/><path fill="#616161" d="M81.347 23.475c-4.762 0-8.493-4.575-8.493-10.406s3.73-10.406 8.493-10.406 8.494 4.575 8.494 10.406c0 .525-.028 1.05-.094 1.565a2.83 2.83 0 0 1-3.131 2.457 2.807 2.807 0 0 1-2.456-3.132c.037-.29.056-.59.056-.89 0-2.738-1.519-4.781-2.869-4.781s-2.868 2.043-2.868 4.78 1.518 4.782 2.868 4.782a2.81 2.81 0 0 1 2.813 2.813 2.81 2.81 0 0 1-2.813 2.812"/><path fill="#E0E0E0" d="M83.362 12.731h7.35v5.7h-7.35z"/></g><defs><clipPath id="a"><path fill="#fff" d="M0 0h120v120H0z"/></clipPath></defs></svg>