<svg xmlns="http://www.w3.org/2000/svg" fill="none" aria-hidden="true" data-slot="icon" viewBox="0 0 120 120"><path fill="#855C52" d="M59.222 54.572c-.038.225.178.525.61 1.087 1.096 1.425 1.424 3.553 1.865 5.269a56 56 0 0 1 1.387 7.837c.244 2.457.62 4.735.62 7.22v7.762c0 5.53-.938 11.08-1.707 16.472-.272 1.875-.844 3.918-1.312 5.765-.197.769-.226 1.585-.404 2.344-.028.122-.065.244-.093.366-1.172 3.646-.816 6.862-.02 7.678 1.36 1.397 3.263 2.39 4.97 2.84 3.89 1.032 8.315 1.05 12.056-.543 3.487-1.482 2.69-4.482 3.29-7.735.347-1.912.554-4.022.554-6.056 0-4.678.159-9.394-.272-14.016-.553-6-1.444-12-2.757-17.962-.815-3.694-1.471-7.144-2.962-10.669a35.5 35.5 0 0 0-2.475-4.875c-.928-1.519-1.406-2.962-2.925-3.937-.366-.235-2.588-2.185-3-2.025-2.053.815-4.106 1.621-6.16 2.437-.824.328-1.227.478-1.265.74"/><path fill="#757F3F" d="M114.018 61.05c-.45-6.234-2.634-12.994-7.762-16.922-2.419-1.847-5.925-3.225-8.822-4.068-7.734-2.241-16.819-.807-24.722 2.278 1.856-1.632 3.76-3.235 5.775-4.622 2.081-1.435 4.21-2.747 6.469-3.9.59-.3 1.022-.394.947-1.125-.038-.385-.235-.74-.385-1.125-.487-1.19-1.312-2.053-2.006-3.131-.75-1.144-1.969-2.438-1.81-3.882.6-.206 1.932.694 2.513.928 1.069.441 2.063.928 3.094 1.444.862.431 1.734.853 2.578 1.322.478.272 1.135.91 1.678 1.003.91.169 1.875-.797 2.635-1.172.553-.272.759-.225.525-.872-.394-1.096-.91-2.015-1.341-3.065-.45-1.106-.862-2.306-.713-3.525.835-.29 2.7 1.247 3.347 1.66.657.412 1.379.871 1.978 1.387.507.43.807 1.228 1.547 1.162.403-.028.76-.394 1.116-.534.628-.244.975-.572 1.556-.89a69 69 0 0 1 3.516-1.82c1.397-.665 1.322-.956.384-2.175-.525-.684-1.228-1.246-1.865-1.818-1.725-1.529-3.338-2.513-5.41-3.46-.76-.347-1.612-.393-2.353-.778-.694-.347-1.331-.487-2.119-.61a38.5 38.5 0 0 0-5.09-.487c-10.885-.356-20.85 7.397-24.985 17.335-.14-2.654-.037-5.344-.037-7.997 0-.9-.066-1.716.094-2.597.112-.628.422-2.86-.141-3.178-.788-.44-7.528-.347-7.097-1.238.413-.853 2.035-1.125 2.831-1.387.994-.328 2.007-.553 2.972-.957.713-.29 1.735-.234 2.325-.75.46-.403.413-1.171.535-1.706.168-.769 2.287-9.497 1.546-9.694-.421-.112-1.218.197-1.659.254-.656.093-1.331.328-1.969.515-.9.263-1.856.516-2.718.9-1.922.853-3.807 1.847-5.57 3.01A29 29 0 0 0 52.894 6.6c-3.759 3.094-6.543 7.088-7.48 12.01-.854 4.453.712 8.868 2.915 12.73-2.053-1.35-4.19-2.577-6.403-3.618-7.453-3.497-16.847-2.494-23.897 1.528-2.438 1.388-4.903 3.244-6.881 5.24-1.876 1.895-4.547 5.916-5.072 8.588-.104.544-.188 1.106-.272 1.66.037 0 .084.009.122.009.946.075 10.903 1.35 11.062.281.122-.825.835-1.622 1.181-2.362 1.022-2.175 4.163-6.403 7.125-5.756.122.637-.271 1.087-.515 1.668-.385.928-.75 1.856-1.135 2.785-.487 1.19-1.012 2.221-.843 3.525 1.218.15 2.55.018 3.778.018 1.069 0 2.137.113 3.206-.018.028 0 .834-2.522.966-2.87.43-1.05 1.115-1.902 1.865-2.746.403-.45 1.407-1.612 2.09-1.378.142.047-.393 4.95-.43 5.316-.094.75-.328 1.471-.235 2.23 2.39.638 4.894.535 7.331.779 1.07.112 2.147.3 3.216.506-.066 0-.131.01-.197.01-3.272.262-6.534.815-9.675 1.771-6.244 1.894-12.347 5.044-16.668 9.957-4.172 4.743-6.61 13.612-6.057 19.828.216 2.344.207 2.953.647 5.269.281 1.48.553 3.253 1.388 4.546.318.507 1.48 2.654 2.278 2.035.572-.44.881-1.332 1.303-1.922 1.134-1.575 2.325-3.103 3.45-4.688.506-.712 2.306-2.428 1.96-3.347-.404-1.05-.516-2.259-.648-3.365-.187-1.594-.28-3.225-.15-4.828.057-.694.15-1.397.385-2.053.103-.291.637-1.425 1.04-1.294.188.056.207.9.225 1.05.075.637.132 1.275.188 1.912.066.76.056 1.5.215 2.25.188.9.497 1.763.77 2.644.15.488.346 1.172.768 1.5.488.375.994-.253 1.322-.581a66 66 0 0 0 2.512-2.644c.347-.384.6-.853.938-1.266.103-.121.328-.234.394-.374.121-.263-.094-.854-.15-1.135-.113-.506-.31-1.003-.394-1.519-.188-1.096-.113-2.193 0-3.29.066-.666-.075-2.419.544-2.86.468-.337.365.441.365.713 0 1.387.31 2.728.75 4.04.188.554.356 1.229.75 1.679.544.609 1.078-.141 1.51-.535 1.359-1.256 2.718-2.512 4.096-3.75.291-.262.591-.525.891-.787.628-.525 1.275-1.032 1.913-1.547-1.407 2.119-2.513 4.425-3.16 6.872-.787 2.934-1.237 6.76-.769 9.768.422 2.738 1.425 5.841 2.963 8.176 1.21 1.828 3.244 3.825 5.231 4.8 1.322.646 2.588-3.282 2.869-4.004.422-1.125.731-2.315 1.21-3.421.374-.882 1.424-2.475.852-3.422-.243-.422-.571-.788-.815-1.247-1.369-2.54-3.234-4.8-2.878-7.913.356.075.712.675.91.994.459.769.852 1.594 1.377 2.316.516.712.872 1.546 1.51 2.203.422.431.768 1.003 1.34 1.275.75.356.9-.553 1.05-1.078.253-.92.788-1.697 1.144-2.57.337-.815.806-1.574 1.162-2.39.329-.75 1.013-1.678.863-2.54-.084-.478-.534-.872-.76-1.313-.3-.637-.6-1.275-.862-1.931a16 16 0 0 1-.516-1.575c-.074-.272-.074-.835-.224-1.013.309.488 1.106.9 1.537 1.313.394.365 1.763 2.006 2.41 1.612.89-.543 1.143-1.78 1.546-2.662.535-1.219 1.219-2.335 1.706-3.553.61-1.556 1.576-2.794 2.485-4.163.628-.956 1.406-1.762 2.016-2.718.346-.544 1.19-1.435 1.396-2.091 4.153 1.003 8.438 1.79 12.507 3.122 1.63.525 3.225 1.19 4.837 1.781 1.172.431 2.419.544 3.61.919.675.215 1.443.778 1.903-.028.328-.591.412-1.332.73-1.97.413-.824.629-1.65.835-2.54.169-.665.197-1.453.46-2.072.178-.403.43-1.35.768-1.622.722-.571.882.685 1.06 1.275.581 1.988.44 4.276.394 6.329-.029.947-.376 1.884-.263 2.822.431-.01.872.309 1.275.44.656.225 1.369.366 2.044.534.403.094 1.2.47 1.584.422.516-.065.469-.515.731-.928.694-1.06 1.182-2.297 1.622-3.506.563-1.528.666-3.225 1.472-4.66.028-.056.591 1.266.628 1.388.3.919.506 1.631.628 2.569.066.469.207.937.282 1.406.121.778.112 1.547.112 2.353 0 1.322-.141 2.747.019 4.05.975.14 1.875.89 2.794 1.2.703.235 6.59 2.428 6.59 2.606-.019-.543.244-1.115.3-1.659.066-.712.141-1.397.291-2.11.29-1.584.084-3.327-.038-4.94"/><path fill="#BDCF46" d="M43.593 65.597c-.272.169-.44.544-.59.834a24.2 24.2 0 0 0-1.997 5.175c-.694 2.663-.928 5.466-.544 8.194.244 1.79.778 3.544 1.528 5.194a22 22 0 0 0 1.303 2.41c.422.665.844 1.959 1.828 1.255.535-.375 1.397-1.79 1.163-2.493-.544-1.603-1.594-3.038-2.213-4.641-.665-1.716-.937-3.581-1.021-5.419a28.4 28.4 0 0 1 .196-4.64c.113-.9.253-1.782.432-2.672.093-.478.197-.956.309-1.425.075-.338.572-2.372-.394-1.772m-6.215-15.628a.64.64 0 0 0-.544-.085c-1.688.46-3.347 1.088-4.96 1.791-2.428 1.06-4.762 2.344-6.9 3.919-2.446 1.79-4.64 3.965-6.29 6.525-1.94 3.028-3.16 6.469-3.647 10.031-.375 2.813-.31 5.69.122 8.494.131.834.3 1.668.497 2.493.14.6.243 1.52.703 1.941.412.366.6.019.89-.31.497-.552 1.032-1.087 1.491-1.668.347-.431.338-1.012.206-1.537a24 24 0 0 1-.543-2.691 28 28 0 0 1-.291-3.975c0-1.622.16-3.244.478-4.838a22.7 22.7 0 0 1 1.753-5.278 22.7 22.7 0 0 1 3.535-5.306c1.697-1.903 3.684-3.544 5.83-4.913a37 37 0 0 1 3.938-2.174 39 39 0 0 1 2.25-.994c.413-.169 1.5-.338 1.66-.844.065-.262-.019-.469-.178-.581m-26.475-8.775c-.328-.666.262-1.34.721-2.035a24.8 24.8 0 0 1 7.763-7.565c2.803-1.725 5.944-2.832 9.178-3.375 1.05-.178 2.1-.263 3.15-.328.347-.02 4.078-.347 3.197.843-.234.31-.844.32-1.19.347-.938.085-1.876.225-2.794.422-1.81.384-3.572.956-5.26 1.706a25.4 25.4 0 0 0-6.29 3.957c-1.37 1.172-2.56 2.53-3.647 3.965-.638.844-1.163 2.278-2.232 2.69-.6.235-1.762.235-2.268-.205a1.4 1.4 0 0 1-.328-.422M54.262 9.272c-.112-.056-.263-.066-.44 0-.404.131-1.088.975-1.379 1.284-2.043 2.203-3.206 5.335-3.61 8.278-.243 1.716-.14 3.47.235 5.166.188.853.45 1.697.769 2.512.169.432.272.816.628 1.116.328.29.675.272 1.04.066.244-.14.629-.375.816-.59.413-.479-.121-1.21-.28-1.688-.479-1.407-1.079-2.794-1.248-4.275-.169-1.491.038-3.057.375-4.52.375-1.64.985-3.224 1.819-4.677.403-.703.89-1.332 1.34-1.997.198-.319.132-.572-.065-.675"/></svg>