<svg xmlns="http://www.w3.org/2000/svg" fill="none" aria-hidden="true" data-slot="icon" viewBox="0 0 120 120" width="1em" height="1em"><path fill="#F9D28E" d="M106.472 36.019c-.066-2.456-.291-4.584-.281-7.069.056-12.665-12.206-12.693-28.734-12.562a.52.52 0 0 1 .328-.103c-3.91.037-6.713.056-8.991.056-3.319-.028-5.644-.028-7.697-.028-2.044-.01-4.369 0-7.697.028-2.278 0-5.09-.019-8.99-.056a.64.64 0 0 1 .328.103c-16.528-.132-28.79-.113-28.735 12.562.01 2.485-.225 4.613-.28 7.069-.348 13.94 1.077 26.063.552 39.178-.806 20.39.066 12.375.066 28.547a13.077 13.077 0 0 0 13.284 12.984c5.953 0 18.385 2.325 31.463 1.744 13.087.581 25.51-1.744 31.462-1.744 8.11 0 13.285-6.497 13.285-12.984 0-16.162.871-8.156.065-28.547-.506-13.116.919-25.237.572-39.178m-80.503-5.025c3.712-5.278 7.884-4.481 16.294-2.475 3.093.74 34.575.816 37.65 0 7.519-1.987 12.581-2.803 16.294 2.475 2.568 3.647 1.312 9.122-5.916 12.534-4.725 2.222-51.638 3.422-58.406 0-7.125-3.609-8.475-8.887-5.916-12.534"/><path fill="#BDCF46" d="M30.919 37.153c-2.372-2.334-5.035-3.769-8.991-2.26-1.453.554-3.3.948-4.256-.656-1.622-2.737-.732-5.456.712-8.015.844-1.51 2.381-1.434 4.078-.619.797.384 1.772-.094 2.738.066 1.5-.91 1.987-1.64 1.556-3.066-.9-3.028.938-4.987 3.91-6.647 5.493-3.065 8.259-2.362 10.246 2.785.235.618.375 1.275 1.857 1.78.984-7.893 7.762-10.555 16.406-11.258 5.053-.413 4.528 3.571 6.45 5.671 2.26-.665 1.66-2.53 2.681-3.665 2.438-2.681 8.419-3.488 11.503-.703 3.563 3.215 6.59 2.503 10.182.656 2.006-3.919 4.443-3.89 7.03-.403 1.135 1.537 2.185 3.169 2.832 4.856.797 2.072.778 3.975-3.178 3.797-3.14-.14-4.219 1.575-4.528 3.76-.197.459-.413 1.124-.9 1.2-4.322.712-7.097 2.437-7.06 6.28 0 .385-.843.629-1.462.704-3.581-.732-7.05-1.575-9.6-3.957-1.838-1.715-4.153-1.912-6.619-.778-1.594.74-3.225 1.35-5.062 1.66-7.82 1.284-8.457 2.437-4.885 8.512.169.29.169.619.103.956-3.065 2.522-6.759 1.688-10.378 1.285-4.153-.985-4.34-4.482-6.6-6.657-3.328-1.63-4.303-.534-4.556 2.194-.16 1.763.225 4.94-4.21 2.522"/><path fill="#81B012" d="M90 11.222c-4.987 5.09-4.969 5.072-10.687.197-2.166-1.838-5.035-1.2-7.594-.929-2.625.272-2.766 2.1-2.822 3.816-.047 1.472.084 3.356-2.39 3.422-2.382.066-3.76-1.585-3.694-3.319.168-4.781-2.888-4.556-7.135-3.403-5.878 1.603-11.597 3.122-10.406 9.6.281 1.519-.712 2.587-2.86 2.447-2.24-.15-3.093-1.34-3.29-3.019-.244-2.09.722-5.756-3.769-4.481-3.103.872-8.419 1.997-7.181 6.469.637 2.306-.694 3.947-4.416 4.106.094-1.781.957-3.844-1.228-5.09-4.556-2.607-2.24-5.185-.065-7.623 1.996-2.25 5.615-3.787 9.656-1.462 3.356 1.922 8.034-.975 6.76-4.266-1.491-3.853 1.612-4.415 4.424-5.006 2.897-.61 6.347-1.219 6.835 2.766.328 2.69 3.375 2.662 5.718 2.606 2.803-.075 6.957-.122 7.238-2.71C63.816-1.35 69.88.779 74.325.723c4.34.478 8.531.618 8.278 6.328-.61 2.465 4.135 3.834 7.397 4.172"/><path fill="#A5C211" d="M83.428 32.644c-1.406-6.141 3.3-7.603 9.506-7.932.254 1.032.994 1.65 2.157 2.222 3.965 1.913 4.51 4.097.46 6.46-2.307 1.34-3.432 2.925-1.145 4.94 2.39 2.11.985 4.031-.58 5.803-1.95 2.194-4.473 3.432-7.95 1.997-2.476-1.819-.142-4.04-.75-6.112-2.28.14-3.892 1.79-6.254 1.547-2.578-.263-3.375.89-3.956 2.793-1.547 5.12-5.438 6.394-11.325 3.957-2.157-.891-3.985-2.335-6.628-2.382-.638 0-1.266-.018-1.913-.018-7.566-.778-9.197-1.96-8.962-6.394 3.703-.375 7.65 1.031 11.128-.966-.9-3.45-.628-6.797 3.834-8.418 4.088-1.491 8.11-.704 10.894 2.334 3.825 4.115 7.65.797 11.484.169"/><path fill="#B4D21C" d="M46.106 39.507c1.144 4.406 5.09 5.268 9.919 5.006 2.109 1.79 2.662 4.631 1.19 5.972-4.125 3.74-1.725 7.48-1.275 11.278.16 1.331.3 2.662-1.162 3.665-2.672.15-3.385-1.096-3.863-2.971-1.003-3.938-3.862-7.21-6.59-10.491-1.913-2.288-4.332-4.013-8.185-3.488-1.556-1.172-1.575-2.672-.872-4.03 1.575-3.076 2.035-6.142 1.388-9.46-.525-2.7 1.378-3.478 4.453-2.39 4.369 1.059 1.64 5.38 4.997 6.909"/><path fill="#B5D21C" d="M57.215 44.522c2.831-.385 4.416 1.256 6.413 2.372 5.418 3.028 9.412 1.528 9.731-3.638.15-2.484.338-4.378 4.5-3.037 2.063.665 4.022.3 5.306-1.416.694-.928 1.275-2.325 3.178-1.219 1.482.863 2.129 1.95 1.07 3.385-1.163 1.584-1.829 3.28-1.529 5.156-4.397-2.39-7.303.019-9.975 2.203-4.725 3.862-7.988 8.625-11.869 13.012-1.265 1.425-1.969 3.272-4.303 3.985-2.39-2.54-2.231-3.525 1.36-8.1-3.694 1.528-5.597-.094-5.063-2.606.731-3.375-.075-6.807 1.181-10.097"/><path fill="#A5C213" d="M41.119 32.587c-1.172.094-3.47.207-3.057.872 3.3 5.4-1.715 10.003-1.912 15.01-1.19 1.49-2.747 1.959-4.575.787-3-1.912-4.753-4.472-4.847-7.51-.056-1.668 1.734-1.865 3.562-1.79.441.019.947-.862 1.425-1.331 3.45.816 3.038-.91 2.832-2.644-.507-4.05 1.003-4.81 6.572-3.394"/><path fill="#D0E468" d="M57.216 44.522c.028 2.953-.01 5.906.131 8.85.056 1.219-.806 2.916 1.153 3.487 1.5.441 2.353-1.03 3.441-1.715.6-.375 1.228-.731 2.719-1.603-2.194 4.359-6.253 7.415-4.931 11.775-1.613 1.246-3.263 1.397-4.95.093-.732-4.33-.797-8.784-3.629-12.787 8.654-.14 3.32-5.4 4.875-8.119a5.6 5.6 0 0 1 1.191.019"/><path fill="#ECAF4C" d="M82.369 30.497c-5.719 5.11-7.95 5.175-13.069.028-2.119-2.128-3.197-.806-6.084-.328-3.02.506-5.87.665-5.775 3.094.037 1.134.084 2.306-1.257 3.103-6.253-.244-3.15-4.06-3.6-6.347-.468-2.428 1.51-4.828 4.538-4.707 3.384.132 6.712-.328 9.262-2.521 1.2-1.032 3.141.225 4.407.88 4.003 2.082 7.743 4.5 11.578 6.798"/><path fill="#C47930" d="M93.835 17.747c.009.028.272.46.393.928.422 1.594-3.975 12.235-5.446 13.21-1.791 1.19-3.554 1.443-5.41.44-1.95-1.05-2.54-3.01-1.8-4.678 1.078-2.447 1.313-4.622 1.078-7.162-.244-2.691 1.2-3.882 4.228-4.66 2.907-.75 5.363-.984 6.957 1.922"/><path fill="#ECAF4C" d="M99.207 31.716c-.02.037-.3.6-.694 1.068C97.18 34.36 87.75 42.9 85.903 42.131c-2.25-.947-4.218-7.406-5.568-10.303-1.36-2.278-.375-4.847 1.715-5.315 3.075-.676 5.382-1.997 7.753-4.041 2.522-2.175 5.728-2.128 8.307.356 2.484 2.363 3.037 5.203 1.097 8.888"/><path fill="#BDCF46" d="M103.247 36.253c-.019.038-.3.6-.694 1.069-1.331 1.575-10.763 10.115-12.61 9.347-2.25-.947-4.218-7.406-5.568-10.303-1.36-2.278-.375-4.847 1.715-5.316 3.075-.675 5.382-1.997 7.753-4.04 2.522-2.176 5.728-2.129 8.307.356 2.484 2.362 3.037 5.212 1.097 8.887"/><path fill="#81B012" d="M70.19 40.519c-.028.028-.45.497-.956.834-1.716 1.144-13.144 6.731-14.7 5.484-1.894-1.528-2.006-8.287-2.494-11.446-.675-2.56.985-4.763 3.122-4.632 3.14.206 5.719-.422 8.569-1.734 3.028-1.388 6.094-.46 7.884 2.644 1.725 2.972 1.453 5.85-1.425 8.85"/><path fill="#C47930" d="M55.556 25.79c-.018.029-.187.526-.478.948-.956 1.425-7.969 9.356-9.544 8.887-1.93-.572-4.115-5.737-5.465-8.006-1.313-1.763-.732-3.975.956-4.547 2.466-.844 4.247-2.147 6.019-4.06 1.884-2.024 4.519-2.287 6.853-.477 2.231 1.734 2.925 4.04 1.66 7.256"/><path fill="#CD4525" d="M33.22 37.092c6.26-.84 10.629-6.785 9.757-13.276-.872-6.492-6.654-11.072-12.915-10.232-6.26.841-10.629 6.785-9.757 13.277S26.96 37.933 33.22 37.092"/><path fill="#EC6C30" d="M27.319 33.666a9 9 0 0 0 4.106 1.153.7.7 0 0 0 .703-.797l-.713-5.288c-.084-.628-.853-.843-1.218-.337l-3.103 4.219a.72.72 0 0 0 .225 1.05m-3.807-12.788a9.6 9.6 0 0 0-1.04 4.35c0 .422.375.75.778.694l5.156-.694c.6-.084.806-.881.319-1.265l-4.19-3.32a.667.667 0 0 0-1.023.235m5.42-4.631a9 9 0 0 0-3.742 2.287.73.73 0 0 0 .066 1.079l4.219 3.337c.487.384 1.172-.028 1.087-.656l-.73-5.466a.714.714 0 0 0-.9-.581m7.058.787a8.94 8.94 0 0 0-4.293-1.18c-.413-.01-.722.374-.666.796l.74 5.484c.085.629.854.844 1.22.338l3.224-4.388a.72.72 0 0 0-.225-1.05m-1.77 17.429a8.8 8.8 0 0 0 3.703-2.175c.31-.3.29-.816-.057-1.088l-4.153-3.29c-.487-.385-1.172.028-1.087.656l.712 5.306c.066.44.478.712.882.59m.243-7.547 4.182 3.318a.67.67 0 0 0 1.012-.215 9.8 9.8 0 0 0 1.144-4.322c.01-.44-.356-.797-.778-.74l-5.24.702c-.61.075-.807.872-.32 1.257m5.982-4.107a9.6 9.6 0 0 0-2.213-3.984.668.668 0 0 0-1.04.047l-3.226 4.387c-.365.497.038 1.22.638 1.135l5.269-.703a.706.706 0 0 0 .572-.882m-17.55 5.279a9.7 9.7 0 0 0 2.175 3.806c.29.319.787.29 1.04-.056l3.103-4.22c.366-.496-.037-1.218-.637-1.134l-5.128.685c-.422.056-.685.497-.553.919"/><path fill="#CD4525" d="m101.147 43.978-24.46-7.668a.803.803 0 0 1-.543-1.013c2.503-7.322 9.571-10.95 16.837-8.887 7.05 1.996 11.278 9.187 9.966 16.5-.15.815-1.013 1.293-1.8 1.068"/><path fill="#EC6C30" d="M81.356 31.875a6.5 6.5 0 0 0-1.81 2.4.47.47 0 0 0 .291.637l3.366.956c.394.113.731-.328.534-.693l-1.696-3.169a.45.45 0 0 0-.685-.131m5.24-3.122a6.14 6.14 0 0 0-2.859 1.012.51.51 0 0 0-.112.741l2.372 2.869c.272.328.797.15.834-.282l.29-3.806a.507.507 0 0 0-.524-.534m5.663.244a6.1 6.1 0 0 0-2.962-.666.51.51 0 0 0-.488.563l.928 3.73c.057.423.591.554.854.198l1.818-3.113a.465.465 0 0 0-.15-.712m8.663 10.18a6.45 6.45 0 0 1-.525 2.963.47.47 0 0 1-.666.225l-3-1.809c-.347-.216-.262-.76.14-.862l3.479-.929a.45.45 0 0 1 .572.413m-1.94-5.362A6.25 6.25 0 0 1 100.2 36.6a.503.503 0 0 1-.46.581l-3.834.094c-.431.028-.656-.478-.356-.797l2.7-2.672a.474.474 0 0 1 .731.01m-4.107-3.918a6.16 6.16 0 0 1 2.513 1.706.5.5 0 0 1-.085.74l-3.206 1.96c-.347.253-.806-.056-.731-.488l.871-3.543a.482.482 0 0 1 .638-.375"/><path fill="#CD4525" d="M60.179 32.513 40.594 45.919c-.337.244-.797.131-1.003-.253-3.478-6.694-1.772-14.41 3.9-18.535 5.503-4.003 12.844-2.465 17.016 3.32.468.646.29 1.612-.328 2.062"/><path fill="#EC6C30" d="M40.35 39.488c-.019.984.16 1.996.562 2.934.113.263.394.347.6.197l2.625-1.913c.31-.225.207-.768-.15-.862l-3.14-.806c-.253-.057-.488.159-.497.45m.975-6c-.553.843-.881 1.818-1.003 2.822-.038.29.169.562.431.571l3.328.094c.385.01.572-.506.3-.816l-2.4-2.718a.4.4 0 0 0-.656.047m3.497-4.116a5.64 5.64 0 0 0-2.194 1.79.55.55 0 0 0 .094.741l3.075 1.753c.319.235.722-.084.637-.515l-1.03-3.422c-.057-.29-.338-.46-.582-.347m11.99.15c.704.6 1.285 1.397 1.697 2.334.113.253-.01.563-.243.647l-2.982 1.069c-.347.122-.665-.3-.497-.675l1.416-3.225a.378.378 0 0 1 .61-.15m-4.771-2.053a5.1 5.1 0 0 1 2.596.91c.225.15.282.496.122.73l-2.193 2.954c-.235.337-.713.178-.75-.254l-.216-3.796c-.038-.31.178-.563.44-.544m-5.072.525a5.1 5.1 0 0 1 2.634-.769c.263 0 .478.253.45.544l-.562 3.703c-.038.431-.516.572-.76.234l-1.884-2.98c-.169-.245-.113-.591.122-.732"/><path fill="#ECAF4C" d="M68.381 40.153c-.112-2.38 2.71-17.606 4.49-19.134 2.176-1.866 4.51-2.41 7.257-1.21 2.878 1.257 4.116 3.947 3.488 6.366-.92 3.553-.77 6.638.103 10.163.928 3.74-1.95 8.981-4.763 8.493-4.256-.45-10.462-2.09-10.575-4.678"/><path fill="#C47930" d="M37.978 46.378c-.047-.028-.816-.384-1.444-.9-2.137-1.763-6.647-19.566-5.634-22.088 1.237-3.084 3.544-3.224 7.012-3.459 3.638-.244 6.15.188 6.797 3.01.956 4.143 2.766 7.237 5.56 10.396 2.962 3.357 2.943 7.707-.347 11.288-3.15 3.422-6.975 4.256-11.944 1.753m31.781-3.872c-.037-.019-.731-.253-1.322-.637-1.996-1.303-6.215-15.3-6.937-17.532-.872-2.69 2.39-3.9 5.362-4.875 3.094-.562 4.988-.3 6.3 1.829 1.81 2.943 3.17 6.412 5.86 8.85 2.86 2.587 3.272 6.309.797 9.703-2.372 3.243-5.56 4.33-10.06 2.662"/><path fill="#C47930" d="M78.825 42.253c-.019-.028-.347-.356-.563-.76-.731-1.368 1.744-11.455 2.11-13.077.44-1.95 2.812-1.856 4.94-1.688 2.044.47 3.085 1.144 3.103 2.86.028 2.372-.403 4.96.338 7.237.787 2.419-.3 4.922-2.981 6.422-2.57 1.444-4.857 1.284-6.947-.994"/><path fill="#EDAF4D" d="M42.225 38.184c-.019.038-.29.6-.694 1.05-1.36 1.547-15.103 4.416-17.053 3.59-2.381-1.012-3.797-2.643-3.984-5.25-.197-2.727 1.425-4.696 3.61-5.1 3.205-.6 5.587-1.865 8.024-3.862 2.588-2.118 4.753-1.462 7.519 1.107 2.653 2.456 4.5 4.818 2.578 8.465"/><path fill="#81B012" d="M98.512 43.903c-5.193 2.953-11.99 13.181-16.537 8.653-1.716-1.706-4.406-1.697-6.769-1.912-2.419-.216-2.784 1.106-3.065 2.362-.235 1.078-.357 2.494-2.616 2.138-2.175-.338-3.197-1.772-2.916-3.047.778-3.497-2.015-3.834-6.028-3.656-5.54.234-10.922.44-10.697 5.418.056 1.163-.984 1.8-2.915 1.341-2.007-.469-2.635-1.481-2.588-2.756.056-1.585 1.406-4.135-2.831-3.919-2.925.15-7.903.122-7.36 3.619.282 1.8-1.143 2.803-4.546 2.315.318-1.303 1.368-2.68-.45-3.956-3.788-2.653-.085-11.315 2.203-12.769 2.11-1.34 5.587-1.893 8.953.47 2.794 1.959 7.416.571 6.694-2.063-.853-3.085 2.043-3 4.668-2.991 2.71.019 8.55 5.653 10.679 5.981 2.559.403 6.328 1.032 6.918-.834 1.528-4.828 10.116-3.038 14.26-1.913 5.1 1.191 12.028 6.75 14.943 7.52"/><path fill="#F9D28E" d="M106.472 36.019c-.028-2.456.393-4.678-.282-7.069-.6-2.1-1.284-3.853-2.081-5.325.01.16.028.319.028.469 0 3.956 1.819 5.962-2.409 9.066-.028 3.028-3.516 7.968-11.419 10.359-4.997 1.51-53.372 2.944-60.14-.478-4.866-2.466-8.363-6.797-8.438-9.769-4.247-3.112-3.666-5.222-3.666-9.187 0-.16.02-.32.028-.479-.796 1.472-1.48 3.225-2.08 5.325-.676 2.391-.226 4.613-.282 7.07l.628 67.715A13.077 13.077 0 0 0 29.644 116.7c5.953 0 18.384 2.325 31.462 1.744 13.088.581 25.51-1.744 31.463-1.744 8.109 0 13.134-6.497 13.284-12.984.394-16.997.694-60.235.619-67.697"/><path fill="#ECAF4C" d="M93.582 74.719c4.987.047 7.181 3.253 7.228 7.594.056 4.78-3.066 6.853-7.772 6.937-4.753.085-6.985-2.719-7.425-6.815-.478-4.444 3.178-7.67 7.969-7.716m-61.266-.966c2.128.019 3.066 1.388 3.084 3.244.019 2.044-1.312 2.925-3.318 2.963-2.035.037-2.982-1.163-3.17-2.907-.205-1.903 1.36-3.281 3.404-3.3M51.853 84.32c2.129.019 3.066 1.387 3.085 3.244.018 2.043-1.313 2.925-3.319 2.962-2.034.038-2.981-1.162-3.169-2.906-.206-1.903 1.35-3.281 3.403-3.3m41.944-32.016c2.128.019 3.066 1.388 3.085 3.244.018 2.044-1.313 2.925-3.32 2.963-2.034.037-2.98-1.163-3.168-2.907-.206-1.903 1.36-3.281 3.403-3.3"/><path fill="#EDAF4D" d="M95.738 93.956c2.972.188 5.025 1.697 5.072 4.716.056 3.394-2.175 4.922-5.447 4.931-3.3.01-4.819-2.268-4.725-4.987.103-2.719 1.772-4.856 5.1-4.66"/><path fill="#EDB04E" d="M87.44 93.01c-.647 2.287-1.819 3.562-4.237 3.393-2.672-.187-3.975-1.519-3.713-4.162.206-2.1 1.613-3.113 3.638-3.01 2.447.122 3.909 1.49 4.312 3.778"/><path fill="#EDAF4D" d="M27.647 97.575c-2.972.188-5.025 1.697-5.072 4.716-.056 3.393 2.175 4.922 5.447 4.931 3.3.009 4.819-2.269 4.725-4.988-.094-2.718-1.772-4.856-5.1-4.659"/></svg>