<svg xmlns="http://www.w3.org/2000/svg" fill="none" aria-hidden="true" data-slot="icon" viewBox="0 0 120 120"><path fill="#106BA4" d="M60 120C7.153 89.063 6.74 28.125 6.74 28.125L60 0l25.425 13.425 27.834 14.7s0 59.531-53.26 91.875"/><path fill="#106BA4" d="M60 120C7.153 89.063 6.74 28.125 6.74 28.125L60 0l25.425 13.425 27.834 14.7s0 59.531-53.26 91.875"/><path fill="#106BA4" d="M60 120C7.153 89.063 6.74 28.125 6.74 28.125L60 0l25.425 13.425 27.834 14.7s0 59.531-53.26 91.875"/><path fill="#106BA4" d="M60 120C7.153 89.063 6.74 28.125 6.74 28.125L60 0l25.425 13.425 27.834 14.7s0 59.531-53.26 91.875"/><path fill="#106BA4" d="M60 120C7.153 89.063 6.74 28.125 6.74 28.125L60 0l25.425 13.425 27.834 14.7s0 59.531-53.26 91.875"/><path fill="#106BA4" d="M60 120C7.153 89.063 6.74 28.125 6.74 28.125L60 0l25.425 13.425 27.834 14.7s0 59.531-53.26 91.875"/><path fill="#106BA4" d="M60 120C7.153 89.063 6.74 28.125 6.74 28.125L60 0l25.425 13.425 27.834 14.7s0 59.531-53.26 91.875"/><path fill="#106BA4" d="M60 120C7.153 89.063 6.74 28.125 6.74 28.125L60 0l25.425 13.425 27.834 14.7s0 59.531-53.26 91.875"/><path fill="#fff" d="M59.934 110.025C24.01 86.362 16.913 46.865 15.516 33.028L60 9.544l44.503 23.503c-.553 5.587-2.034 15.412-6.065 26.662-7.613 21.282-20.56 38.194-38.504 50.316"/><path fill="#37BFE9" d="M60 110.025V9.544l44.541 23.503c-.553 5.587-2.016 15.412-6.047 26.662C90.872 80.991 77.813 97.903 60 110.025"/></svg>