<svg width="120" height="120" viewBox="0 0 120 120" fill="none" xmlns="http://www.w3.org/2000/svg">
<path d="M59.9996 120C7.15274 89.0625 6.74023 28.125 6.74023 28.125L59.9996 0L85.4246 13.425L113.259 28.125C113.259 28.125 113.259 87.6562 59.9996 120Z" fill="#106BA4"/>
<path d="M59.9996 120C7.15274 89.0625 6.74023 28.125 6.74023 28.125L59.9996 0L85.4246 13.425L113.259 28.125C113.259 28.125 113.259 87.6562 59.9996 120Z" fill="#106BA4"/>
<path d="M59.9996 120C7.15274 89.0625 6.74023 28.125 6.74023 28.125L59.9996 0L85.4246 13.425L113.259 28.125C113.259 28.125 113.259 87.6562 59.9996 120Z" fill="#106BA4"/>
<path d="M59.9996 120C7.15274 89.0625 6.74023 28.125 6.74023 28.125L59.9996 0L85.4246 13.425L113.259 28.125C113.259 28.125 113.259 87.6562 59.9996 120Z" fill="#106BA4"/>
<path d="M59.9996 120C7.15274 89.0625 6.74023 28.125 6.74023 28.125L59.9996 0L85.4246 13.425L113.259 28.125C113.259 28.125 113.259 87.6562 59.9996 120Z" fill="#106BA4"/>
<path d="M59.9996 120C7.15274 89.0625 6.74023 28.125 6.74023 28.125L59.9996 0L85.4246 13.425L113.259 28.125C113.259 28.125 113.259 87.6562 59.9996 120Z" fill="#106BA4"/>
<path d="M59.9996 120C7.15274 89.0625 6.74023 28.125 6.74023 28.125L59.9996 0L85.4246 13.425L113.259 28.125C113.259 28.125 113.259 87.6562 59.9996 120Z" fill="#106BA4"/>
<path d="M59.9996 120C7.15274 89.0625 6.74023 28.125 6.74023 28.125L59.9996 0L85.4246 13.425L113.259 28.125C113.259 28.125 113.259 87.6562 59.9996 120Z" fill="#106BA4"/>
<path d="M59.9344 110.025C24.0094 86.3625 16.9125 46.8656 15.5156 33.0281L60 9.5437L104.503 33.0468C103.95 38.6343 102.469 48.4593 98.4375 59.7093C90.825 80.9906 77.8781 97.9031 59.9344 110.025Z" fill="white"/>
<path d="M60 110.025V9.5437L104.541 33.0468C103.988 38.6343 102.525 48.4593 98.4937 59.7093C90.8719 80.9906 77.8125 97.9031 60 110.025Z" fill="#37BFE9"/>
</svg>
