<svg xmlns="http://www.w3.org/2000/svg" fill="none" aria-hidden="true" data-slot="icon" viewBox="0 0 120 120"><g clip-path="url(#a)"><path fill="#E0E0E0" d="M78.084 35.69c4.987-1.34 13.369-7.743 18.862-8.352 1.979-.216 5.035-.075 6.947.487 4.107 1.2 6.544 4.66 8.054 8.663 1.19 3.14 3.187 8.259 3.515 16.837.019.6.356 1.66-.103 2.044-.375.31-.9.328-1.387.328-2.232-.01-5.972-.384-8.204-.394-1.265 0-2.653-.056-3.581-.91-1.078-1.002-1.097-2.671-1.031-4.152-1.725-2.485-5.213-2.738-8.222-2.944-3.01-.206-6.581-1.04-7.612-3.881-.338-.919-.329-1.922-.329-2.906.02-3.244-6.928-1.575-6.909-4.82"/><path fill="#757575" d="M81.815 41.41c5.616-2.879 10.81-8.204 16.847-8.42.77-.028 1.557-.037 2.297.179 1.519.45 2.691 1.922 2.813 3.525.168 2.165-1.388 4.059-3.066 5.39-3.3 2.625-7.387 4.088-11.54 4.622-1.079.14-2.25.197-3.17-.394-.815-.525-1.284-1.453-1.706-2.334-1.087-2.278-1.378-.29-2.475-2.569"/><path fill="#78909C" d="M5.428 83.578C.975 83.26.413 95.428 6.591 100.922c5.287 4.706 13.36 6.216 20.034 6.797 22.172 1.94 44.869-8.522 49.031-9.816 4.19-1.303 25.257-9 32.982-12.75 2.643-1.284 7.631-3.187 8.54-5.287 1.022-2.353.694-8.11.178-12.188-.131-1.05-.393-2.147-1.153-2.878-1.228-1.21-3.487.038-5.156.45-6.469 1.594-10.416 3.919-16.556 6.506-3.188 1.35-6.478 2.466-9.75 3.572-15.76 5.344-31.763 10.744-48.375 11.616-10.744.581-20.27-2.016-30.938-3.366"/><path fill="#0288D1" d="M54.872 36.769c.947-5.663 4.275-11.156 9.984-11.803 4.313-.488 18.835 1.687 21.807 4.856 6.15 6.553-1.632 13.238-1.331 14.363.403 1.537 2.709 2.503 5.54 1.818 2.522-.6 3.853-1.772 6.469-2.55 2.597-.769 4.612 1.49 5.812 3.881 1.585 3.16 4.379 3.76 7.304 3.863 1.275.047 3.403-.056 4.359.403.975.469 1.575 1.828 1.856 2.84 1.491 5.307 2.269 12.263-.825 16.82-3.825 5.634-29.428 13.34-36.469 16.19-6.703 2.719-24.543 8.719-31.734 7.96-.525-.057-1.097-.15-1.462-.535-.479-.506-.422-1.284-.357-1.969.46-4.706-12.112-24.43-15.694-26.08-.759-.348-1.575-.957-1.537-1.782.019-.497-.084-1.003.337-1.266 2.391-1.481 3.207-2.718 4.97-4.481 1.03-1.031 1.452-2.672 3.159-4.284.984-.938 3.59-1.847 4.387-2.803 1.022-1.21 1.435-2.222 2.531-3.394 1.997-2.128 3.282-1.978 4.735-3.516.778-.825 1.36-2.625 2.1-3.853.768-1.238 3.684-3.122 4.06-4.678"/><path fill="#E0E0E0" d="M27.797 63.31c-8.119 5.258-13.417 7.705-21.638 16.47-1.36 1.453-2.118 4.82-1.837 6.788.319 2.203 1.884 4.04 3.619 5.428 5.409 4.322 11.775 5.344 18.684 5.812 7.397.497 16.753-.14 24.319-1.387 1.565-.263 3.384-1.772 3.712-3.122.731-2.953.216-8.99.178-11.419-.056-4.068-.703-6.14-2.643-8.484-2.691-3.253-6.375-4.866-10.697-6.675-4.313-1.81-10.078-5.269-13.697-3.413"/><path fill="#fff" d="M53.54 43.847a4.9 4.9 0 0 1 1.22-1.294 3 3 0 0 1 .993-.469c4.031-1.162 8.84.347 12.75 1.453 2.513.713 10.153 3.141 7.463 7.163-.704 1.04-2.11 1.734-3.357 1.669-1.772-.094-3.065-1.435-4.575-2.222-1.697-.89-3.356-1.716-5.184-2.334a58 58 0 0 0-4.49-1.379c-1.323-.337-2.485-.28-3.826-.43-.337-.038-.628.046-.947-.132-.693-.394-.384-1.481-.047-2.025m-7.228 6.656c1.041-1.294 2.494-1.584 4.022-1.65.544-.028 1.106-.019 1.66-.019 3.337 0 6.656.77 9.665 2.232 2.007.975 4.21 1.978 5.663 3.73.843 1.023 1.706 2.017 1.303 3.441-1.294 4.538-7.031-.628-8.878-1.593-1.603-.835-3.563-1.847-5.278-2.363-.872-.262-1.791-.328-2.644-.562-1.66-.46-3.244-.563-4.913-.816-1.443-.215-1.33-1.481-.6-2.4m-7.48 7.116c.758-1.294 2.53-1.64 3.9-1.8h.074c2.84-.29 6.066.628 8.775 1.425.947.281 2.034.553 2.944.947 1.96.843 4.144 2.006 5.606 3.572 2.213 2.371-.403 4.237-3.112 3.974-.47-.046-.825-.243-1.266-.374-.656-.207-1.35-.254-2.016-.432-1.95-.543-3.75-1.368-5.503-2.334-.9-.497-1.828-.806-2.784-1.19-1.144-.46-2.26-.798-3.422-1.22-.91-.328-2.4-.28-3.169-.909-.468-.384-.319-1.172-.028-1.66"/></g><defs><clipPath id="a"><path fill="#fff" d="M0 0h120v120H0z"/></clipPath></defs></svg>