<svg xmlns="http://www.w3.org/2000/svg" fill="none" aria-hidden="true" data-slot="icon" viewBox="0 0 120 120"><path fill="#757F3F" d="M119.157 37.097c-1.969-8.69-10.144-19.19-22.903-21.535-13.547-2.493-26.841 2.457-34.182 17.213a44.2 44.2 0 0 0-3.768 11.119C54.207 37.059 46.332 27.647 33.6 26.372c-18.13-1.8-28.79 8.765-31.78 17.503-4.098 11.934-.32 21.731 8.455 23.034 8.785 1.303 15.02-4.18 20.691-7.162 8.213-4.322 22.181-4.678 25.125 3.553a131 131 0 0 1 1.078 6.572c1.144 8.531.16 16.865-2.512 25.19a52 52 0 0 1-3.357 8.082c-1.846 3.553-3.703 5.812-2.1 7.772 1.36 1.659 3.947 2.25 6.291 2.25 7.388 0 8.634-3.469 8.634-3.469s9.291-15.685 1.697-45.928l.057.075C63.872 53.137 76.519 51 80.119 50.906c7.256-.169 18.366 2.381 25.331 3.281 15.788 2.035 15.132-10.78 13.707-17.09"/><path fill="#BDCF46" d="M25.247 42.778a27.4 27.4 0 0 1 2.794-3.853c1.096-1.275 3.59-2.625 3.684-4.481.14-2.494-3.76-2.24-5.297-2.128a25 25 0 0 0-2.99.375 23.6 23.6 0 0 0-5.176 1.565c-2.821 1.238-5.38 3.057-7.434 5.363-1.5 1.687-2.794 3.656-3.525 5.803-1.725 4.987-1.678 9.712.094 12.628.984 1.622 2.456 2.588 4.378 2.869 8.034 1.19 9.722-7.763 11.606-13.622.488-1.528 1.04-3.131 1.866-4.519m42.844-7.903c-.46 1.622-.6 3.394.243 4.603.61.863 2.194 1.313 3.216 1.06 3.019-.741 5.166-4.82 6.666-7.257 1.162-1.893 2.643-3.703 4.2-5.287.975-.994 2.268-2.128 2.606-3.544.619-2.616-3.375-1.575-4.556-1.284-4.613 1.162-9.038 4.828-11.27 9a14 14 0 0 0-1.105 2.71"/></svg>