<svg xmlns="http://www.w3.org/2000/svg" fill="none" aria-hidden="true" data-slot="icon" viewBox="0 0 120 120"><path fill="#FBC21A" d="M85.669 112.669c6.125 0 11.09-4.966 11.09-11.091s-4.965-11.09-11.09-11.09-11.09 4.965-11.09 11.09 4.965 11.091 11.09 11.091"/><path fill="#E5502E" d="M97.65 67.069c13.022-19.369 15.918-39.694-3.807-54.9C74.128-3.047 55.21 4.913 39.778 22.425c-17.7 20.09-9.488 37.125-9.488 37.125l33.863 26.12s18.562 3.619 33.497-18.6"/><path fill="#FDCB80" d="M64.153 85.669 30.29 59.549s6.89 13.173 1.669 22.173c-4.087 7.03-9.722 12.9-14.662 17.793a2.76 2.76 0 0 0-.495 3.262c.186.348.444.652.757.892l6.722 5.184a2.768 2.768 0 0 0 4.087-.806c3.479-6.019 8.297-12.778 14.063-18.516 7.36-7.34 21.722-3.862 21.722-3.862"/><path fill="#F9AE4B" d="m31.238 84.656 8.916-11.222a3.223 3.223 0 0 1 4.518-.58l3.694 2.859a3.226 3.226 0 0 1 .61 4.49L40.79 90.431c-.103.15-.3.188-.412.103-.132-.084-.16-.31-.02-.46 1.848-2.915 3.685-5.905 5.532-8.82a2.427 2.427 0 0 0-.562-3.226L43.2 76.434a2.424 2.424 0 0 0-3.28.29l-8.279 8.213c-.122.17-.337.179-.422.094-.075-.084-.075-.244.019-.375"/></svg>